<?xml version="1.0" encoding="utf-8" standalone="no"?>
<!DOCTYPE svg PUBLIC "-//W3C//DTD SVG 1.1//EN"
  "http://www.w3.org/Graphics/SVG/1.1/DTD/svg11.dtd">
<svg xmlns:xlink="http://www.w3.org/1999/xlink" width="606.21875pt" height="480.232762pt" viewBox="0 0 606.21875 480.232762" xmlns="http://www.w3.org/2000/svg" version="1.1">
 <metadata>
  <rdf:RDF xmlns:dc="http://purl.org/dc/elements/1.1/" xmlns:cc="http://creativecommons.org/ns#" xmlns:rdf="http://www.w3.org/1999/02/22-rdf-syntax-ns#">
   <cc:Work>
    <dc:type rdf:resource="http://purl.org/dc/dcmitype/StillImage"/>
    <dc:date>2025-04-10T16:46:15.877419</dc:date>
    <dc:format>image/svg+xml</dc:format>
    <dc:creator>
     <cc:Agent>
      <dc:title>Matplotlib v3.9.2, https://matplotlib.org/</dc:title>
     </cc:Agent>
    </dc:creator>
   </cc:Work>
  </rdf:RDF>
 </metadata>
 <defs>
  <style type="text/css">*{stroke-linejoin: round; stroke-linecap: butt}</style>
 </defs>
 <g id="figure_1">
  <g id="patch_1">
   <path d="M 0 480.232762 
L 606.21875 480.232762 
L 606.21875 0 
L 0 0 
z
" style="fill: #ffffff"/>
  </g>
  <g id="axes_1">
   <g id="patch_2">
    <path d="M 283.25408 45.73706 
C 263.295399 45.73706 243.458053 48.847053 224.456937 54.954961 
C 205.455821 61.062869 187.521963 70.094428 171.301659 81.724161 
L 283.25408 237.867233 
z
" style="fill: #1f77b4"/>
   </g>
   <g id="patch_3">
    <path d="M 166.678702 84.946182 
C 151.855942 95.5739 138.621771 108.258359 127.375137 122.617194 
C 116.128504 136.976028 106.983594 152.863484 100.216112 169.800536 
L 278.631136 241.089246 
z
" style="fill: #aec7e8"/>
   </g>
   <g id="patch_4">
    <path d="M 98.227154 174.699975 
C 91.722216 190.979943 87.476042 208.073908 85.606997 225.505437 
C 83.737952 242.936967 84.263546 260.542572 87.169132 277.83156 
L 276.642178 245.988684 
z
" style="fill: #ff7f0e"/>
   </g>
   <g id="patch_5">
    <path d="M 87.996807 282.877583 
C 90.818658 299.66829 95.859968 316.009674 102.98815 331.471883 
C 110.116332 346.934091 119.268307 361.380366 130.203416 374.430815 
L 277.469853 251.034707 
z
" style="fill: #ffbb78"/>
   </g>
   <g id="patch_6">
    <path d="M 133.428426 378.285832 
C 144.298638 391.25882 156.835586 402.738785 170.713385 412.427269 
C 184.591184 422.115752 199.688531 429.928113 215.613063 435.661299 
L 280.694863 254.889724 
z
" style="fill: #2ca02c"/>
   </g>
   <g id="patch_7">
    <path d="M 220.328337 437.358902 
C 236.252874 443.092087 252.865444 446.695996 269.734153 448.076929 
C 286.602863 449.457862 303.580287 448.60376 320.225233 445.536828 
L 285.410138 256.587327 
z
" style="fill: #98df8a"/>
   </g>
   <g id="patch_8">
    <path d="M 325.126576 444.641683 
C 341.572805 441.611363 357.553227 436.446738 372.662272 429.278899 
C 387.771311 422.11106 401.880083 413.001158 414.630459 402.180396 
L 290.311481 255.692181 
z
" style="fill: #d62728"/>
   </g>
   <g id="patch_9">
    <path d="M 418.398421 398.987755 
C 431.071772 388.23236 442.295994 375.877611 451.789567 362.233407 
C 461.28314 348.589202 468.966038 333.770536 474.645663 318.148946 
L 294.079443 252.49954 
z
" style="fill: #ff9896"/>
   </g>
   <g id="patch_10">
    <path d="M 476.324032 313.566309 
C 481.900121 298.229498 485.499541 282.244615 487.035303 265.998015 
C 488.571065 249.751416 488.030675 233.375106 485.427188 217.265096 
L 295.757812 247.916902 
z
" style="fill: #9467bd"/>
   </g>
   <g id="patch_11">
    <path d="M 484.697612 212.587423 
C 482.206914 197.175296 477.846908 182.124006 471.71419 167.766884 
C 465.581472 153.409761 457.721632 139.853547 448.308646 127.398308 
L 295.028235 243.239229 
z
" style="fill: #c5b0d5"/>
   </g>
   <g id="patch_12">
    <path d="M 445.56282 123.741211 
C 436.393323 111.608147 425.815558 100.606629 414.05185 90.967847 
C 402.288143 81.329065 389.421485 73.121042 375.722289 66.516279 
L 292.282409 239.582132 
z
" style="fill: #8c564b"/>
   </g>
   <g id="patch_13">
    <path d="M 371.773567 64.58182 
C 358.801718 58.327723 345.167786 53.551855 331.128784 50.344226 
C 317.089783 47.136597 302.734496 45.5175 288.333714 45.5175 
L 288.333688 237.647673 
z
" style="fill: #c49c94"/>
   </g>
   <g id="matplotlib.axis_1"/>
   <g id="matplotlib.axis_2"/>
   <g id="text_1">
    <!-- Samsung -->
    <g transform="translate(162.837221 39.974984) scale(0.12 -0.12)">
     <defs>
      <path id="DejaVuSans-53" d="M 3425 4513 
L 3425 3897 
Q 3066 4069 2747 4153 
Q 2428 4238 2131 4238 
Q 1616 4238 1336 4038 
Q 1056 3838 1056 3469 
Q 1056 3159 1242 3001 
Q 1428 2844 1947 2747 
L 2328 2669 
Q 3034 2534 3370 2195 
Q 3706 1856 3706 1288 
Q 3706 609 3251 259 
Q 2797 -91 1919 -91 
Q 1588 -91 1214 -16 
Q 841 59 441 206 
L 441 856 
Q 825 641 1194 531 
Q 1563 422 1919 422 
Q 2459 422 2753 634 
Q 3047 847 3047 1241 
Q 3047 1584 2836 1778 
Q 2625 1972 2144 2069 
L 1759 2144 
Q 1053 2284 737 2584 
Q 422 2884 422 3419 
Q 422 4038 858 4394 
Q 1294 4750 2059 4750 
Q 2388 4750 2728 4690 
Q 3069 4631 3425 4513 
z
" transform="scale(0.015625)"/>
      <path id="DejaVuSans-61" d="M 2194 1759 
Q 1497 1759 1228 1600 
Q 959 1441 959 1056 
Q 959 750 1161 570 
Q 1363 391 1709 391 
Q 2188 391 2477 730 
Q 2766 1069 2766 1631 
L 2766 1759 
L 2194 1759 
z
M 3341 1997 
L 3341 0 
L 2766 0 
L 2766 531 
Q 2569 213 2275 61 
Q 1981 -91 1556 -91 
Q 1019 -91 701 211 
Q 384 513 384 1019 
Q 384 1609 779 1909 
Q 1175 2209 1959 2209 
L 2766 2209 
L 2766 2266 
Q 2766 2663 2505 2880 
Q 2244 3097 1772 3097 
Q 1472 3097 1187 3025 
Q 903 2953 641 2809 
L 641 3341 
Q 956 3463 1253 3523 
Q 1550 3584 1831 3584 
Q 2591 3584 2966 3190 
Q 3341 2797 3341 1997 
z
" transform="scale(0.015625)"/>
      <path id="DejaVuSans-6d" d="M 3328 2828 
Q 3544 3216 3844 3400 
Q 4144 3584 4550 3584 
Q 5097 3584 5394 3201 
Q 5691 2819 5691 2113 
L 5691 0 
L 5113 0 
L 5113 2094 
Q 5113 2597 4934 2840 
Q 4756 3084 4391 3084 
Q 3944 3084 3684 2787 
Q 3425 2491 3425 1978 
L 3425 0 
L 2847 0 
L 2847 2094 
Q 2847 2600 2669 2842 
Q 2491 3084 2119 3084 
Q 1678 3084 1418 2786 
Q 1159 2488 1159 1978 
L 1159 0 
L 581 0 
L 581 3500 
L 1159 3500 
L 1159 2956 
Q 1356 3278 1631 3431 
Q 1906 3584 2284 3584 
Q 2666 3584 2933 3390 
Q 3200 3197 3328 2828 
z
" transform="scale(0.015625)"/>
      <path id="DejaVuSans-73" d="M 2834 3397 
L 2834 2853 
Q 2591 2978 2328 3040 
Q 2066 3103 1784 3103 
Q 1356 3103 1142 2972 
Q 928 2841 928 2578 
Q 928 2378 1081 2264 
Q 1234 2150 1697 2047 
L 1894 2003 
Q 2506 1872 2764 1633 
Q 3022 1394 3022 966 
Q 3022 478 2636 193 
Q 2250 -91 1575 -91 
Q 1294 -91 989 -36 
Q 684 19 347 128 
L 347 722 
Q 666 556 975 473 
Q 1284 391 1588 391 
Q 1994 391 2212 530 
Q 2431 669 2431 922 
Q 2431 1156 2273 1281 
Q 2116 1406 1581 1522 
L 1381 1569 
Q 847 1681 609 1914 
Q 372 2147 372 2553 
Q 372 3047 722 3315 
Q 1072 3584 1716 3584 
Q 2034 3584 2315 3537 
Q 2597 3491 2834 3397 
z
" transform="scale(0.015625)"/>
      <path id="DejaVuSans-75" d="M 544 1381 
L 544 3500 
L 1119 3500 
L 1119 1403 
Q 1119 906 1312 657 
Q 1506 409 1894 409 
Q 2359 409 2629 706 
Q 2900 1003 2900 1516 
L 2900 3500 
L 3475 3500 
L 3475 0 
L 2900 0 
L 2900 538 
Q 2691 219 2414 64 
Q 2138 -91 1772 -91 
Q 1169 -91 856 284 
Q 544 659 544 1381 
z
M 1991 3584 
L 1991 3584 
z
" transform="scale(0.015625)"/>
      <path id="DejaVuSans-6e" d="M 3513 2113 
L 3513 0 
L 2938 0 
L 2938 2094 
Q 2938 2591 2744 2837 
Q 2550 3084 2163 3084 
Q 1697 3084 1428 2787 
Q 1159 2491 1159 1978 
L 1159 0 
L 581 0 
L 581 3500 
L 1159 3500 
L 1159 2956 
Q 1366 3272 1645 3428 
Q 1925 3584 2291 3584 
Q 2894 3584 3203 3211 
Q 3513 2838 3513 2113 
z
" transform="scale(0.015625)"/>
      <path id="DejaVuSans-67" d="M 2906 1791 
Q 2906 2416 2648 2759 
Q 2391 3103 1925 3103 
Q 1463 3103 1205 2759 
Q 947 2416 947 1791 
Q 947 1169 1205 825 
Q 1463 481 1925 481 
Q 2391 481 2648 825 
Q 2906 1169 2906 1791 
z
M 3481 434 
Q 3481 -459 3084 -895 
Q 2688 -1331 1869 -1331 
Q 1566 -1331 1297 -1286 
Q 1028 -1241 775 -1147 
L 775 -588 
Q 1028 -725 1275 -790 
Q 1522 -856 1778 -856 
Q 2344 -856 2625 -561 
Q 2906 -266 2906 331 
L 2906 616 
Q 2728 306 2450 153 
Q 2172 0 1784 0 
Q 1141 0 747 490 
Q 353 981 353 1791 
Q 353 2603 747 3093 
Q 1141 3584 1784 3584 
Q 2172 3584 2450 3431 
Q 2728 3278 2906 2969 
L 2906 3500 
L 3481 3500 
L 3481 434 
z
" transform="scale(0.015625)"/>
     </defs>
     <use xlink:href="#DejaVuSans-53"/>
     <use xlink:href="#DejaVuSans-61" x="63.476562"/>
     <use xlink:href="#DejaVuSans-6d" x="124.755859"/>
     <use xlink:href="#DejaVuSans-73" x="222.167969"/>
     <use xlink:href="#DejaVuSans-75" x="274.267578"/>
     <use xlink:href="#DejaVuSans-6e" x="337.646484"/>
     <use xlink:href="#DejaVuSans-67" x="401.025391"/>
    </g>
   </g>
   <g id="text_2">
    <!-- 9.9% -->
    <g transform="translate(232.732981 131.43112) scale(0.12 -0.12)">
     <defs>
      <path id="DejaVuSans-39" d="M 703 97 
L 703 672 
Q 941 559 1184 500 
Q 1428 441 1663 441 
Q 2288 441 2617 861 
Q 2947 1281 2994 2138 
Q 2813 1869 2534 1725 
Q 2256 1581 1919 1581 
Q 1219 1581 811 2004 
Q 403 2428 403 3163 
Q 403 3881 828 4315 
Q 1253 4750 1959 4750 
Q 2769 4750 3195 4129 
Q 3622 3509 3622 2328 
Q 3622 1225 3098 567 
Q 2575 -91 1691 -91 
Q 1453 -91 1209 -44 
Q 966 3 703 97 
z
M 1959 2075 
Q 2384 2075 2632 2365 
Q 2881 2656 2881 3163 
Q 2881 3666 2632 3958 
Q 2384 4250 1959 4250 
Q 1534 4250 1286 3958 
Q 1038 3666 1038 3163 
Q 1038 2656 1286 2365 
Q 1534 2075 1959 2075 
z
" transform="scale(0.015625)"/>
      <path id="DejaVuSans-2e" d="M 684 794 
L 1344 794 
L 1344 0 
L 684 0 
L 684 794 
z
" transform="scale(0.015625)"/>
      <path id="DejaVuSans-25" d="M 4653 2053 
Q 4381 2053 4226 1822 
Q 4072 1591 4072 1178 
Q 4072 772 4226 539 
Q 4381 306 4653 306 
Q 4919 306 5073 539 
Q 5228 772 5228 1178 
Q 5228 1588 5073 1820 
Q 4919 2053 4653 2053 
z
M 4653 2450 
Q 5147 2450 5437 2106 
Q 5728 1763 5728 1178 
Q 5728 594 5436 251 
Q 5144 -91 4653 -91 
Q 4153 -91 3862 251 
Q 3572 594 3572 1178 
Q 3572 1766 3864 2108 
Q 4156 2450 4653 2450 
z
M 1428 4353 
Q 1159 4353 1004 4120 
Q 850 3888 850 3481 
Q 850 3069 1003 2837 
Q 1156 2606 1428 2606 
Q 1700 2606 1854 2837 
Q 2009 3069 2009 3481 
Q 2009 3884 1853 4118 
Q 1697 4353 1428 4353 
z
M 4250 4750 
L 4750 4750 
L 1831 -91 
L 1331 -91 
L 4250 4750 
z
M 1428 4750 
Q 1922 4750 2215 4408 
Q 2509 4066 2509 3481 
Q 2509 2891 2217 2550 
Q 1925 2209 1428 2209 
Q 931 2209 642 2551 
Q 353 2894 353 3481 
Q 353 4063 643 4406 
Q 934 4750 1428 4750 
z
" transform="scale(0.015625)"/>
     </defs>
     <use xlink:href="#DejaVuSans-39"/>
     <use xlink:href="#DejaVuSans-2e" x="63.623047"/>
     <use xlink:href="#DejaVuSans-39" x="95.410156"/>
     <use xlink:href="#DejaVuSans-25" x="159.033203"/>
    </g>
   </g>
   <g id="text_3">
    <!-- Apple -->
    <g transform="translate(78.087007 114.081282) scale(0.12 -0.12)">
     <defs>
      <path id="DejaVuSans-41" d="M 2188 4044 
L 1331 1722 
L 3047 1722 
L 2188 4044 
z
M 1831 4666 
L 2547 4666 
L 4325 0 
L 3669 0 
L 3244 1197 
L 1141 1197 
L 716 0 
L 50 0 
L 1831 4666 
z
" transform="scale(0.015625)"/>
      <path id="DejaVuSans-70" d="M 1159 525 
L 1159 -1331 
L 581 -1331 
L 581 3500 
L 1159 3500 
L 1159 2969 
Q 1341 3281 1617 3432 
Q 1894 3584 2278 3584 
Q 2916 3584 3314 3078 
Q 3713 2572 3713 1747 
Q 3713 922 3314 415 
Q 2916 -91 2278 -91 
Q 1894 -91 1617 61 
Q 1341 213 1159 525 
z
M 3116 1747 
Q 3116 2381 2855 2742 
Q 2594 3103 2138 3103 
Q 1681 3103 1420 2742 
Q 1159 2381 1159 1747 
Q 1159 1113 1420 752 
Q 1681 391 2138 391 
Q 2594 391 2855 752 
Q 3116 1113 3116 1747 
z
" transform="scale(0.015625)"/>
      <path id="DejaVuSans-6c" d="M 603 4863 
L 1178 4863 
L 1178 0 
L 603 0 
L 603 4863 
z
" transform="scale(0.015625)"/>
      <path id="DejaVuSans-65" d="M 3597 1894 
L 3597 1613 
L 953 1613 
Q 991 1019 1311 708 
Q 1631 397 2203 397 
Q 2534 397 2845 478 
Q 3156 559 3463 722 
L 3463 178 
Q 3153 47 2828 -22 
Q 2503 -91 2169 -91 
Q 1331 -91 842 396 
Q 353 884 353 1716 
Q 353 2575 817 3079 
Q 1281 3584 2069 3584 
Q 2775 3584 3186 3129 
Q 3597 2675 3597 1894 
z
M 3022 2063 
Q 3016 2534 2758 2815 
Q 2500 3097 2075 3097 
Q 1594 3097 1305 2825 
Q 1016 2553 972 2059 
L 3022 2063 
z
" transform="scale(0.015625)"/>
     </defs>
     <use xlink:href="#DejaVuSans-41"/>
     <use xlink:href="#DejaVuSans-70" x="68.408203"/>
     <use xlink:href="#DejaVuSans-70" x="131.884766"/>
     <use xlink:href="#DejaVuSans-6c" x="195.361328"/>
     <use xlink:href="#DejaVuSans-65" x="223.144531"/>
    </g>
   </g>
   <g id="text_4">
    <!-- 9.0% -->
    <g transform="translate(172.634707 173.317288) scale(0.12 -0.12)">
     <defs>
      <path id="DejaVuSans-30" d="M 2034 4250 
Q 1547 4250 1301 3770 
Q 1056 3291 1056 2328 
Q 1056 1369 1301 889 
Q 1547 409 2034 409 
Q 2525 409 2770 889 
Q 3016 1369 3016 2328 
Q 3016 3291 2770 3770 
Q 2525 4250 2034 4250 
z
M 2034 4750 
Q 2819 4750 3233 4129 
Q 3647 3509 3647 2328 
Q 3647 1150 3233 529 
Q 2819 -91 2034 -91 
Q 1250 -91 836 529 
Q 422 1150 422 2328 
Q 422 3509 836 4129 
Q 1250 4750 2034 4750 
z
" transform="scale(0.015625)"/>
     </defs>
     <use xlink:href="#DejaVuSans-39"/>
     <use xlink:href="#DejaVuSans-2e" x="63.623047"/>
     <use xlink:href="#DejaVuSans-30" x="95.410156"/>
     <use xlink:href="#DejaVuSans-25" x="159.033203"/>
    </g>
   </g>
   <g id="text_5">
    <!-- Oppo -->
    <g transform="translate(34.47848 226.768362) scale(0.12 -0.12)">
     <defs>
      <path id="DejaVuSans-4f" d="M 2522 4238 
Q 1834 4238 1429 3725 
Q 1025 3213 1025 2328 
Q 1025 1447 1429 934 
Q 1834 422 2522 422 
Q 3209 422 3611 934 
Q 4013 1447 4013 2328 
Q 4013 3213 3611 3725 
Q 3209 4238 2522 4238 
z
M 2522 4750 
Q 3503 4750 4090 4092 
Q 4678 3434 4678 2328 
Q 4678 1225 4090 567 
Q 3503 -91 2522 -91 
Q 1538 -91 948 565 
Q 359 1222 359 2328 
Q 359 3434 948 4092 
Q 1538 4750 2522 4750 
z
" transform="scale(0.015625)"/>
      <path id="DejaVuSans-6f" d="M 1959 3097 
Q 1497 3097 1228 2736 
Q 959 2375 959 1747 
Q 959 1119 1226 758 
Q 1494 397 1959 397 
Q 2419 397 2687 759 
Q 2956 1122 2956 1747 
Q 2956 2369 2687 2733 
Q 2419 3097 1959 3097 
z
M 1959 3584 
Q 2709 3584 3137 3096 
Q 3566 2609 3566 1747 
Q 3566 888 3137 398 
Q 2709 -91 1959 -91 
Q 1206 -91 779 398 
Q 353 888 353 1747 
Q 353 2609 779 3096 
Q 1206 3584 1959 3584 
z
" transform="scale(0.015625)"/>
     </defs>
     <use xlink:href="#DejaVuSans-4f"/>
     <use xlink:href="#DejaVuSans-70" x="78.710938"/>
     <use xlink:href="#DejaVuSans-70" x="142.1875"/>
     <use xlink:href="#DejaVuSans-6f" x="205.664062"/>
    </g>
   </g>
   <g id="text_6">
    <!-- 8.7% -->
    <g transform="translate(146.778258 237.009986) scale(0.12 -0.12)">
     <defs>
      <path id="DejaVuSans-38" d="M 2034 2216 
Q 1584 2216 1326 1975 
Q 1069 1734 1069 1313 
Q 1069 891 1326 650 
Q 1584 409 2034 409 
Q 2484 409 2743 651 
Q 3003 894 3003 1313 
Q 3003 1734 2745 1975 
Q 2488 2216 2034 2216 
z
M 1403 2484 
Q 997 2584 770 2862 
Q 544 3141 544 3541 
Q 544 4100 942 4425 
Q 1341 4750 2034 4750 
Q 2731 4750 3128 4425 
Q 3525 4100 3525 3541 
Q 3525 3141 3298 2862 
Q 3072 2584 2669 2484 
Q 3125 2378 3379 2068 
Q 3634 1759 3634 1313 
Q 3634 634 3220 271 
Q 2806 -91 2034 -91 
Q 1263 -91 848 271 
Q 434 634 434 1313 
Q 434 1759 690 2068 
Q 947 2378 1403 2484 
z
M 1172 3481 
Q 1172 3119 1398 2916 
Q 1625 2713 2034 2713 
Q 2441 2713 2670 2916 
Q 2900 3119 2900 3481 
Q 2900 3844 2670 4047 
Q 2441 4250 2034 4250 
Q 1625 4250 1398 4047 
Q 1172 3844 1172 3481 
z
" transform="scale(0.015625)"/>
      <path id="DejaVuSans-37" d="M 525 4666 
L 3525 4666 
L 3525 4397 
L 1831 0 
L 1172 0 
L 2766 4134 
L 525 4134 
L 525 4666 
z
" transform="scale(0.015625)"/>
     </defs>
     <use xlink:href="#DejaVuSans-38"/>
     <use xlink:href="#DejaVuSans-2e" x="63.623047"/>
     <use xlink:href="#DejaVuSans-37" x="95.410156"/>
     <use xlink:href="#DejaVuSans-25" x="159.033203"/>
    </g>
   </g>
   <g id="text_7">
    <!-- Realme -->
    <g transform="translate(40.598126 342.826893) scale(0.12 -0.12)">
     <defs>
      <path id="DejaVuSans-52" d="M 2841 2188 
Q 3044 2119 3236 1894 
Q 3428 1669 3622 1275 
L 4263 0 
L 3584 0 
L 2988 1197 
Q 2756 1666 2539 1819 
Q 2322 1972 1947 1972 
L 1259 1972 
L 1259 0 
L 628 0 
L 628 4666 
L 2053 4666 
Q 2853 4666 3247 4331 
Q 3641 3997 3641 3322 
Q 3641 2881 3436 2590 
Q 3231 2300 2841 2188 
z
M 1259 4147 
L 1259 2491 
L 2053 2491 
Q 2509 2491 2742 2702 
Q 2975 2913 2975 3322 
Q 2975 3731 2742 3939 
Q 2509 4147 2053 4147 
L 1259 4147 
z
" transform="scale(0.015625)"/>
     </defs>
     <use xlink:href="#DejaVuSans-52"/>
     <use xlink:href="#DejaVuSans-65" x="64.982422"/>
     <use xlink:href="#DejaVuSans-61" x="126.505859"/>
     <use xlink:href="#DejaVuSans-6c" x="187.785156"/>
     <use xlink:href="#DejaVuSans-6d" x="215.568359"/>
     <use xlink:href="#DejaVuSans-65" x="312.980469"/>
    </g>
   </g>
   <g id="text_8">
    <!-- 8.4% -->
    <g transform="translate(157.53803 302.608286) scale(0.12 -0.12)">
     <defs>
      <path id="DejaVuSans-34" d="M 2419 4116 
L 825 1625 
L 2419 1625 
L 2419 4116 
z
M 2253 4666 
L 3047 4666 
L 3047 1625 
L 3713 1625 
L 3713 1100 
L 3047 1100 
L 3047 0 
L 2419 0 
L 2419 1100 
L 313 1100 
L 313 1709 
L 2253 4666 
z
" transform="scale(0.015625)"/>
     </defs>
     <use xlink:href="#DejaVuSans-38"/>
     <use xlink:href="#DejaVuSans-2e" x="63.623047"/>
     <use xlink:href="#DejaVuSans-34" x="95.410156"/>
     <use xlink:href="#DejaVuSans-25" x="159.033203"/>
    </g>
   </g>
   <g id="text_9">
    <!-- Vivo -->
    <g transform="translate(133.99774 431.492275) scale(0.12 -0.12)">
     <defs>
      <path id="DejaVuSans-56" d="M 1831 0 
L 50 4666 
L 709 4666 
L 2188 738 
L 3669 4666 
L 4325 4666 
L 2547 0 
L 1831 0 
z
" transform="scale(0.015625)"/>
      <path id="DejaVuSans-69" d="M 603 3500 
L 1178 3500 
L 1178 0 
L 603 0 
L 603 3500 
z
M 603 4863 
L 1178 4863 
L 1178 4134 
L 603 4134 
L 603 4863 
z
" transform="scale(0.015625)"/>
      <path id="DejaVuSans-76" d="M 191 3500 
L 800 3500 
L 1894 563 
L 2988 3500 
L 3597 3500 
L 2284 0 
L 1503 0 
L 191 3500 
z
" transform="scale(0.015625)"/>
     </defs>
     <use xlink:href="#DejaVuSans-56"/>
     <use xlink:href="#DejaVuSans-69" x="66.158203"/>
     <use xlink:href="#DejaVuSans-76" x="93.941406"/>
     <use xlink:href="#DejaVuSans-6f" x="153.121094"/>
    </g>
   </g>
   <g id="text_10">
    <!-- 8.4% -->
    <g transform="translate(199.463166 352.723502) scale(0.12 -0.12)">
     <use xlink:href="#DejaVuSans-38"/>
     <use xlink:href="#DejaVuSans-2e" x="63.623047"/>
     <use xlink:href="#DejaVuSans-34" x="95.410156"/>
     <use xlink:href="#DejaVuSans-25" x="159.033203"/>
    </g>
   </g>
   <g id="text_11">
    <!-- Huawei -->
    <g transform="translate(223.652178 470.537137) scale(0.12 -0.12)">
     <defs>
      <path id="DejaVuSans-48" d="M 628 4666 
L 1259 4666 
L 1259 2753 
L 3553 2753 
L 3553 4666 
L 4184 4666 
L 4184 0 
L 3553 0 
L 3553 2222 
L 1259 2222 
L 1259 0 
L 628 0 
L 628 4666 
z
" transform="scale(0.015625)"/>
      <path id="DejaVuSans-77" d="M 269 3500 
L 844 3500 
L 1563 769 
L 2278 3500 
L 2956 3500 
L 3675 769 
L 4391 3500 
L 4966 3500 
L 4050 0 
L 3372 0 
L 2619 2869 
L 1863 0 
L 1184 0 
L 269 3500 
z
" transform="scale(0.015625)"/>
     </defs>
     <use xlink:href="#DejaVuSans-48"/>
     <use xlink:href="#DejaVuSans-75" x="75.195312"/>
     <use xlink:href="#DejaVuSans-61" x="138.574219"/>
     <use xlink:href="#DejaVuSans-77" x="199.853516"/>
     <use xlink:href="#DejaVuSans-65" x="281.640625"/>
     <use xlink:href="#DejaVuSans-69" x="343.164062"/>
    </g>
   </g>
   <g id="text_12">
    <!-- 8.4% -->
    <g transform="translate(260.761734 374.792337) scale(0.12 -0.12)">
     <use xlink:href="#DejaVuSans-38"/>
     <use xlink:href="#DejaVuSans-2e" x="63.623047"/>
     <use xlink:href="#DejaVuSans-34" x="95.410156"/>
     <use xlink:href="#DejaVuSans-25" x="159.033203"/>
    </g>
   </g>
   <g id="text_13">
    <!-- Xiaomi -->
    <g transform="translate(380.897445 449.948782) scale(0.12 -0.12)">
     <defs>
      <path id="DejaVuSans-58" d="M 403 4666 
L 1081 4666 
L 2241 2931 
L 3406 4666 
L 4084 4666 
L 2584 2425 
L 4184 0 
L 3506 0 
L 2194 1984 
L 872 0 
L 191 0 
L 1856 2491 
L 403 4666 
z
" transform="scale(0.015625)"/>
     </defs>
     <use xlink:href="#DejaVuSans-58"/>
     <use xlink:href="#DejaVuSans-69" x="68.505859"/>
     <use xlink:href="#DejaVuSans-61" x="96.289062"/>
     <use xlink:href="#DejaVuSans-6f" x="157.568359"/>
     <use xlink:href="#DejaVuSans-6d" x="218.75"/>
     <use xlink:href="#DejaVuSans-69" x="316.162109"/>
    </g>
   </g>
   <g id="text_14">
    <!-- 8.3% -->
    <g transform="translate(324.479194 363.155441) scale(0.12 -0.12)">
     <defs>
      <path id="DejaVuSans-33" d="M 2597 2516 
Q 3050 2419 3304 2112 
Q 3559 1806 3559 1356 
Q 3559 666 3084 287 
Q 2609 -91 1734 -91 
Q 1441 -91 1130 -33 
Q 819 25 488 141 
L 488 750 
Q 750 597 1062 519 
Q 1375 441 1716 441 
Q 2309 441 2620 675 
Q 2931 909 2931 1356 
Q 2931 1769 2642 2001 
Q 2353 2234 1838 2234 
L 1294 2234 
L 1294 2753 
L 1863 2753 
Q 2328 2753 2575 2939 
Q 2822 3125 2822 3475 
Q 2822 3834 2567 4026 
Q 2313 4219 1838 4219 
Q 1578 4219 1281 4162 
Q 984 4106 628 3988 
L 628 4550 
Q 988 4650 1302 4700 
Q 1616 4750 1894 4750 
Q 2613 4750 3031 4423 
Q 3450 4097 3450 3541 
Q 3450 3153 3228 2886 
Q 3006 2619 2597 2516 
z
" transform="scale(0.015625)"/>
     </defs>
     <use xlink:href="#DejaVuSans-38"/>
     <use xlink:href="#DejaVuSans-2e" x="63.623047"/>
     <use xlink:href="#DejaVuSans-33" x="95.410156"/>
     <use xlink:href="#DejaVuSans-25" x="159.033203"/>
    </g>
   </g>
   <g id="text_15">
    <!-- Google -->
    <g transform="translate(467.560573 376.518047) scale(0.12 -0.12)">
     <defs>
      <path id="DejaVuSans-47" d="M 3809 666 
L 3809 1919 
L 2778 1919 
L 2778 2438 
L 4434 2438 
L 4434 434 
Q 4069 175 3628 42 
Q 3188 -91 2688 -91 
Q 1594 -91 976 548 
Q 359 1188 359 2328 
Q 359 3472 976 4111 
Q 1594 4750 2688 4750 
Q 3144 4750 3555 4637 
Q 3966 4525 4313 4306 
L 4313 3634 
Q 3963 3931 3569 4081 
Q 3175 4231 2741 4231 
Q 1884 4231 1454 3753 
Q 1025 3275 1025 2328 
Q 1025 1384 1454 906 
Q 1884 428 2741 428 
Q 3075 428 3337 486 
Q 3600 544 3809 666 
z
" transform="scale(0.015625)"/>
     </defs>
     <use xlink:href="#DejaVuSans-47"/>
     <use xlink:href="#DejaVuSans-6f" x="77.490234"/>
     <use xlink:href="#DejaVuSans-6f" x="138.671875"/>
     <use xlink:href="#DejaVuSans-67" x="199.853516"/>
     <use xlink:href="#DejaVuSans-6c" x="263.330078"/>
     <use xlink:href="#DejaVuSans-65" x="291.113281"/>
    </g>
   </g>
   <g id="text_16">
    <!-- 8.2% -->
    <g transform="translate(373.462701 321.651112) scale(0.12 -0.12)">
     <defs>
      <path id="DejaVuSans-32" d="M 1228 531 
L 3431 531 
L 3431 0 
L 469 0 
L 469 531 
Q 828 903 1448 1529 
Q 2069 2156 2228 2338 
Q 2531 2678 2651 2914 
Q 2772 3150 2772 3378 
Q 2772 3750 2511 3984 
Q 2250 4219 1831 4219 
Q 1534 4219 1204 4116 
Q 875 4013 500 3803 
L 500 4441 
Q 881 4594 1212 4672 
Q 1544 4750 1819 4750 
Q 2544 4750 2975 4387 
Q 3406 4025 3406 3419 
Q 3406 3131 3298 2873 
Q 3191 2616 2906 2266 
Q 2828 2175 2409 1742 
Q 1991 1309 1228 531 
z
" transform="scale(0.015625)"/>
     </defs>
     <use xlink:href="#DejaVuSans-38"/>
     <use xlink:href="#DejaVuSans-2e" x="63.623047"/>
     <use xlink:href="#DejaVuSans-32" x="95.410156"/>
     <use xlink:href="#DejaVuSans-25" x="159.033203"/>
    </g>
   </g>
   <g id="text_17">
    <!-- Motorola -->
    <g transform="translate(506.163047 271.117375) scale(0.12 -0.12)">
     <defs>
      <path id="DejaVuSans-4d" d="M 628 4666 
L 1569 4666 
L 2759 1491 
L 3956 4666 
L 4897 4666 
L 4897 0 
L 4281 0 
L 4281 4097 
L 3078 897 
L 2444 897 
L 1241 4097 
L 1241 0 
L 628 0 
L 628 4666 
z
" transform="scale(0.015625)"/>
      <path id="DejaVuSans-74" d="M 1172 4494 
L 1172 3500 
L 2356 3500 
L 2356 3053 
L 1172 3053 
L 1172 1153 
Q 1172 725 1289 603 
Q 1406 481 1766 481 
L 2356 481 
L 2356 0 
L 1766 0 
Q 1100 0 847 248 
Q 594 497 594 1153 
L 594 3053 
L 172 3053 
L 172 3500 
L 594 3500 
L 594 4494 
L 1172 4494 
z
" transform="scale(0.015625)"/>
      <path id="DejaVuSans-72" d="M 2631 2963 
Q 2534 3019 2420 3045 
Q 2306 3072 2169 3072 
Q 1681 3072 1420 2755 
Q 1159 2438 1159 1844 
L 1159 0 
L 581 0 
L 581 3500 
L 1159 3500 
L 1159 2956 
Q 1341 3275 1631 3429 
Q 1922 3584 2338 3584 
Q 2397 3584 2469 3576 
Q 2541 3569 2628 3553 
L 2631 2963 
z
" transform="scale(0.015625)"/>
     </defs>
     <use xlink:href="#DejaVuSans-4d"/>
     <use xlink:href="#DejaVuSans-6f" x="86.279297"/>
     <use xlink:href="#DejaVuSans-74" x="147.460938"/>
     <use xlink:href="#DejaVuSans-6f" x="186.669922"/>
     <use xlink:href="#DejaVuSans-72" x="247.851562"/>
     <use xlink:href="#DejaVuSans-6f" x="286.714844"/>
     <use xlink:href="#DejaVuSans-6c" x="347.896484"/>
     <use xlink:href="#DejaVuSans-61" x="375.679688"/>
    </g>
   </g>
   <g id="text_18">
    <!-- 8.1% -->
    <g transform="translate(395.281491 262.076819) scale(0.12 -0.12)">
     <defs>
      <path id="DejaVuSans-31" d="M 794 531 
L 1825 531 
L 1825 4091 
L 703 3866 
L 703 4441 
L 1819 4666 
L 2450 4666 
L 2450 531 
L 3481 531 
L 3481 0 
L 794 0 
L 794 531 
z
" transform="scale(0.015625)"/>
     </defs>
     <use xlink:href="#DejaVuSans-38"/>
     <use xlink:href="#DejaVuSans-2e" x="63.623047"/>
     <use xlink:href="#DejaVuSans-31" x="95.410156"/>
     <use xlink:href="#DejaVuSans-25" x="159.033203"/>
    </g>
   </g>
   <g id="text_19">
    <!-- Nokia -->
    <g transform="translate(489.38279 163.530897) scale(0.12 -0.12)">
     <defs>
      <path id="DejaVuSans-4e" d="M 628 4666 
L 1478 4666 
L 3547 763 
L 3547 4666 
L 4159 4666 
L 4159 0 
L 3309 0 
L 1241 3903 
L 1241 0 
L 628 0 
L 628 4666 
z
" transform="scale(0.015625)"/>
      <path id="DejaVuSans-6b" d="M 581 4863 
L 1159 4863 
L 1159 1991 
L 2875 3500 
L 3609 3500 
L 1753 1863 
L 3688 0 
L 2938 0 
L 1159 1709 
L 1159 0 
L 581 0 
L 581 4863 
z
" transform="scale(0.015625)"/>
     </defs>
     <use xlink:href="#DejaVuSans-4e"/>
     <use xlink:href="#DejaVuSans-6f" x="74.804688"/>
     <use xlink:href="#DejaVuSans-6b" x="135.986328"/>
     <use xlink:href="#DejaVuSans-69" x="193.896484"/>
     <use xlink:href="#DejaVuSans-61" x="221.679688"/>
    </g>
   </g>
   <g id="text_20">
    <!-- 7.8% -->
    <g transform="translate(385.796998 201.267071) scale(0.12 -0.12)">
     <use xlink:href="#DejaVuSans-37"/>
     <use xlink:href="#DejaVuSans-2e" x="63.623047"/>
     <use xlink:href="#DejaVuSans-38" x="95.410156"/>
     <use xlink:href="#DejaVuSans-25" x="159.033203"/>
    </g>
   </g>
   <g id="text_21">
    <!-- OnePlus -->
    <g transform="translate(426.228795 79.417666) scale(0.12 -0.12)">
     <defs>
      <path id="DejaVuSans-50" d="M 1259 4147 
L 1259 2394 
L 2053 2394 
Q 2494 2394 2734 2622 
Q 2975 2850 2975 3272 
Q 2975 3691 2734 3919 
Q 2494 4147 2053 4147 
L 1259 4147 
z
M 628 4666 
L 2053 4666 
Q 2838 4666 3239 4311 
Q 3641 3956 3641 3272 
Q 3641 2581 3239 2228 
Q 2838 1875 2053 1875 
L 1259 1875 
L 1259 0 
L 628 0 
L 628 4666 
z
" transform="scale(0.015625)"/>
     </defs>
     <use xlink:href="#DejaVuSans-4f"/>
     <use xlink:href="#DejaVuSans-6e" x="78.710938"/>
     <use xlink:href="#DejaVuSans-65" x="142.089844"/>
     <use xlink:href="#DejaVuSans-50" x="203.613281"/>
     <use xlink:href="#DejaVuSans-6c" x="263.916016"/>
     <use xlink:href="#DejaVuSans-75" x="291.699219"/>
     <use xlink:href="#DejaVuSans-73" x="355.078125"/>
    </g>
   </g>
   <g id="text_22">
    <!-- 7.5% -->
    <g transform="translate(350.101262 153.72481) scale(0.12 -0.12)">
     <defs>
      <path id="DejaVuSans-35" d="M 691 4666 
L 3169 4666 
L 3169 4134 
L 1269 4134 
L 1269 2991 
Q 1406 3038 1543 3061 
Q 1681 3084 1819 3084 
Q 2600 3084 3056 2656 
Q 3513 2228 3513 1497 
Q 3513 744 3044 326 
Q 2575 -91 1722 -91 
Q 1428 -91 1123 -41 
Q 819 9 494 109 
L 494 744 
Q 775 591 1075 516 
Q 1375 441 1709 441 
Q 2250 441 2565 725 
Q 2881 1009 2881 1497 
Q 2881 1984 2565 2268 
Q 2250 2553 1709 2553 
Q 1456 2553 1204 2497 
Q 953 2441 691 2322 
L 691 4666 
z
" transform="scale(0.015625)"/>
     </defs>
     <use xlink:href="#DejaVuSans-37"/>
     <use xlink:href="#DejaVuSans-2e" x="63.623047"/>
     <use xlink:href="#DejaVuSans-35" x="95.410156"/>
     <use xlink:href="#DejaVuSans-25" x="159.033203"/>
    </g>
   </g>
   <g id="text_23">
    <!-- Sony -->
    <g transform="translate(335.408195 34.925103) scale(0.12 -0.12)">
     <defs>
      <path id="DejaVuSans-79" d="M 2059 -325 
Q 1816 -950 1584 -1140 
Q 1353 -1331 966 -1331 
L 506 -1331 
L 506 -850 
L 844 -850 
Q 1081 -850 1212 -737 
Q 1344 -625 1503 -206 
L 1606 56 
L 191 3500 
L 800 3500 
L 1894 763 
L 2988 3500 
L 3597 3500 
L 2059 -325 
z
" transform="scale(0.015625)"/>
     </defs>
     <use xlink:href="#DejaVuSans-53"/>
     <use xlink:href="#DejaVuSans-6f" x="63.476562"/>
     <use xlink:href="#DejaVuSans-6e" x="124.658203"/>
     <use xlink:href="#DejaVuSans-79" x="188.037109"/>
    </g>
   </g>
   <g id="text_24">
    <!-- 7.2% -->
    <g transform="translate(298.767879 128.57684) scale(0.12 -0.12)">
     <use xlink:href="#DejaVuSans-37"/>
     <use xlink:href="#DejaVuSans-2e" x="63.623047"/>
     <use xlink:href="#DejaVuSans-32" x="95.410156"/>
     <use xlink:href="#DejaVuSans-25" x="159.033203"/>
    </g>
   </g>
   <g id="text_25">
    <!-- Smartphone Distribution by Brand -->
    <g transform="translate(149.025 19.3575) scale(0.16 -0.16)">
     <defs>
      <path id="DejaVuSans-68" d="M 3513 2113 
L 3513 0 
L 2938 0 
L 2938 2094 
Q 2938 2591 2744 2837 
Q 2550 3084 2163 3084 
Q 1697 3084 1428 2787 
Q 1159 2491 1159 1978 
L 1159 0 
L 581 0 
L 581 4863 
L 1159 4863 
L 1159 2956 
Q 1366 3272 1645 3428 
Q 1925 3584 2291 3584 
Q 2894 3584 3203 3211 
Q 3513 2838 3513 2113 
z
" transform="scale(0.015625)"/>
      <path id="DejaVuSans-20" transform="scale(0.015625)"/>
      <path id="DejaVuSans-44" d="M 1259 4147 
L 1259 519 
L 2022 519 
Q 2988 519 3436 956 
Q 3884 1394 3884 2338 
Q 3884 3275 3436 3711 
Q 2988 4147 2022 4147 
L 1259 4147 
z
M 628 4666 
L 1925 4666 
Q 3281 4666 3915 4102 
Q 4550 3538 4550 2338 
Q 4550 1131 3912 565 
Q 3275 0 1925 0 
L 628 0 
L 628 4666 
z
" transform="scale(0.015625)"/>
      <path id="DejaVuSans-62" d="M 3116 1747 
Q 3116 2381 2855 2742 
Q 2594 3103 2138 3103 
Q 1681 3103 1420 2742 
Q 1159 2381 1159 1747 
Q 1159 1113 1420 752 
Q 1681 391 2138 391 
Q 2594 391 2855 752 
Q 3116 1113 3116 1747 
z
M 1159 2969 
Q 1341 3281 1617 3432 
Q 1894 3584 2278 3584 
Q 2916 3584 3314 3078 
Q 3713 2572 3713 1747 
Q 3713 922 3314 415 
Q 2916 -91 2278 -91 
Q 1894 -91 1617 61 
Q 1341 213 1159 525 
L 1159 0 
L 581 0 
L 581 4863 
L 1159 4863 
L 1159 2969 
z
" transform="scale(0.015625)"/>
      <path id="DejaVuSans-42" d="M 1259 2228 
L 1259 519 
L 2272 519 
Q 2781 519 3026 730 
Q 3272 941 3272 1375 
Q 3272 1813 3026 2020 
Q 2781 2228 2272 2228 
L 1259 2228 
z
M 1259 4147 
L 1259 2741 
L 2194 2741 
Q 2656 2741 2882 2914 
Q 3109 3088 3109 3444 
Q 3109 3797 2882 3972 
Q 2656 4147 2194 4147 
L 1259 4147 
z
M 628 4666 
L 2241 4666 
Q 2963 4666 3353 4366 
Q 3744 4066 3744 3513 
Q 3744 3084 3544 2831 
Q 3344 2578 2956 2516 
Q 3422 2416 3680 2098 
Q 3938 1781 3938 1306 
Q 3938 681 3513 340 
Q 3088 0 2303 0 
L 628 0 
L 628 4666 
z
" transform="scale(0.015625)"/>
      <path id="DejaVuSans-64" d="M 2906 2969 
L 2906 4863 
L 3481 4863 
L 3481 0 
L 2906 0 
L 2906 525 
Q 2725 213 2448 61 
Q 2172 -91 1784 -91 
Q 1150 -91 751 415 
Q 353 922 353 1747 
Q 353 2572 751 3078 
Q 1150 3584 1784 3584 
Q 2172 3584 2448 3432 
Q 2725 3281 2906 2969 
z
M 947 1747 
Q 947 1113 1208 752 
Q 1469 391 1925 391 
Q 2381 391 2643 752 
Q 2906 1113 2906 1747 
Q 2906 2381 2643 2742 
Q 2381 3103 1925 3103 
Q 1469 3103 1208 2742 
Q 947 2381 947 1747 
z
" transform="scale(0.015625)"/>
     </defs>
     <use xlink:href="#DejaVuSans-53"/>
     <use xlink:href="#DejaVuSans-6d" x="63.476562"/>
     <use xlink:href="#DejaVuSans-61" x="160.888672"/>
     <use xlink:href="#DejaVuSans-72" x="222.167969"/>
     <use xlink:href="#DejaVuSans-74" x="263.28125"/>
     <use xlink:href="#DejaVuSans-70" x="302.490234"/>
     <use xlink:href="#DejaVuSans-68" x="365.966797"/>
     <use xlink:href="#DejaVuSans-6f" x="429.345703"/>
     <use xlink:href="#DejaVuSans-6e" x="490.527344"/>
     <use xlink:href="#DejaVuSans-65" x="553.90625"/>
     <use xlink:href="#DejaVuSans-20" x="615.429688"/>
     <use xlink:href="#DejaVuSans-44" x="647.216797"/>
     <use xlink:href="#DejaVuSans-69" x="724.21875"/>
     <use xlink:href="#DejaVuSans-73" x="752.001953"/>
     <use xlink:href="#DejaVuSans-74" x="804.101562"/>
     <use xlink:href="#DejaVuSans-72" x="843.310547"/>
     <use xlink:href="#DejaVuSans-69" x="884.423828"/>
     <use xlink:href="#DejaVuSans-62" x="912.207031"/>
     <use xlink:href="#DejaVuSans-75" x="975.683594"/>
     <use xlink:href="#DejaVuSans-74" x="1039.0625"/>
     <use xlink:href="#DejaVuSans-69" x="1078.271484"/>
     <use xlink:href="#DejaVuSans-6f" x="1106.054688"/>
     <use xlink:href="#DejaVuSans-6e" x="1167.236328"/>
     <use xlink:href="#DejaVuSans-20" x="1230.615234"/>
     <use xlink:href="#DejaVuSans-62" x="1262.402344"/>
     <use xlink:href="#DejaVuSans-79" x="1325.878906"/>
     <use xlink:href="#DejaVuSans-20" x="1385.058594"/>
     <use xlink:href="#DejaVuSans-42" x="1416.845703"/>
     <use xlink:href="#DejaVuSans-72" x="1485.449219"/>
     <use xlink:href="#DejaVuSans-61" x="1526.5625"/>
     <use xlink:href="#DejaVuSans-6e" x="1587.841797"/>
     <use xlink:href="#DejaVuSans-64" x="1651.220703"/>
    </g>
   </g>
   <g id="legend_1">
    <g id="patch_14">
     <path d="M 488.5 242.1175 
L 597.01875 242.1175 
Q 599.01875 242.1175 599.01875 240.1175 
L 599.01875 64.98 
Q 599.01875 62.98 597.01875 62.98 
L 488.5 62.98 
Q 486.5 62.98 486.5 64.98 
L 486.5 240.1175 
Q 486.5 242.1175 488.5 242.1175 
z
" style="fill: #ffffff; opacity: 0.8; stroke: #cccccc; stroke-linejoin: miter"/>
    </g>
    <g id="patch_15">
     <path d="M 490.5 74.578438 
L 510.5 74.578438 
L 510.5 67.578438 
L 490.5 67.578438 
z
" style="fill: #1f77b4"/>
    </g>
    <g id="text_26">
     <!-- Samsung (198) -->
     <g transform="translate(518.5 74.578438) scale(0.1 -0.1)">
      <defs>
       <path id="DejaVuSans-28" d="M 1984 4856 
Q 1566 4138 1362 3434 
Q 1159 2731 1159 2009 
Q 1159 1288 1364 580 
Q 1569 -128 1984 -844 
L 1484 -844 
Q 1016 -109 783 600 
Q 550 1309 550 2009 
Q 550 2706 781 3412 
Q 1013 4119 1484 4856 
L 1984 4856 
z
" transform="scale(0.015625)"/>
       <path id="DejaVuSans-29" d="M 513 4856 
L 1013 4856 
Q 1481 4119 1714 3412 
Q 1947 2706 1947 2009 
Q 1947 1309 1714 600 
Q 1481 -109 1013 -844 
L 513 -844 
Q 928 -128 1133 580 
Q 1338 1288 1338 2009 
Q 1338 2731 1133 3434 
Q 928 4138 513 4856 
z
" transform="scale(0.015625)"/>
      </defs>
      <use xlink:href="#DejaVuSans-53"/>
      <use xlink:href="#DejaVuSans-61" x="63.476562"/>
      <use xlink:href="#DejaVuSans-6d" x="124.755859"/>
      <use xlink:href="#DejaVuSans-73" x="222.167969"/>
      <use xlink:href="#DejaVuSans-75" x="274.267578"/>
      <use xlink:href="#DejaVuSans-6e" x="337.646484"/>
      <use xlink:href="#DejaVuSans-67" x="401.025391"/>
      <use xlink:href="#DejaVuSans-20" x="464.501953"/>
      <use xlink:href="#DejaVuSans-28" x="496.289062"/>
      <use xlink:href="#DejaVuSans-31" x="535.302734"/>
      <use xlink:href="#DejaVuSans-39" x="598.925781"/>
      <use xlink:href="#DejaVuSans-38" x="662.548828"/>
      <use xlink:href="#DejaVuSans-29" x="726.171875"/>
     </g>
    </g>
    <g id="patch_16">
     <path d="M 490.5 89.256563 
L 510.5 89.256563 
L 510.5 82.256563 
L 490.5 82.256563 
z
" style="fill: #aec7e8"/>
    </g>
    <g id="text_27">
     <!-- Apple (181) -->
     <g transform="translate(518.5 89.256563) scale(0.1 -0.1)">
      <use xlink:href="#DejaVuSans-41"/>
      <use xlink:href="#DejaVuSans-70" x="68.408203"/>
      <use xlink:href="#DejaVuSans-70" x="131.884766"/>
      <use xlink:href="#DejaVuSans-6c" x="195.361328"/>
      <use xlink:href="#DejaVuSans-65" x="223.144531"/>
      <use xlink:href="#DejaVuSans-20" x="284.667969"/>
      <use xlink:href="#DejaVuSans-28" x="316.455078"/>
      <use xlink:href="#DejaVuSans-31" x="355.46875"/>
      <use xlink:href="#DejaVuSans-38" x="419.091797"/>
      <use xlink:href="#DejaVuSans-31" x="482.714844"/>
      <use xlink:href="#DejaVuSans-29" x="546.337891"/>
     </g>
    </g>
    <g id="patch_17">
     <path d="M 490.5 103.934688 
L 510.5 103.934688 
L 510.5 96.934688 
L 490.5 96.934688 
z
" style="fill: #ff7f0e"/>
    </g>
    <g id="text_28">
     <!-- Oppo (174) -->
     <g transform="translate(518.5 103.934688) scale(0.1 -0.1)">
      <use xlink:href="#DejaVuSans-4f"/>
      <use xlink:href="#DejaVuSans-70" x="78.710938"/>
      <use xlink:href="#DejaVuSans-70" x="142.1875"/>
      <use xlink:href="#DejaVuSans-6f" x="205.664062"/>
      <use xlink:href="#DejaVuSans-20" x="266.845703"/>
      <use xlink:href="#DejaVuSans-28" x="298.632812"/>
      <use xlink:href="#DejaVuSans-31" x="337.646484"/>
      <use xlink:href="#DejaVuSans-37" x="401.269531"/>
      <use xlink:href="#DejaVuSans-34" x="464.892578"/>
      <use xlink:href="#DejaVuSans-29" x="528.515625"/>
     </g>
    </g>
    <g id="patch_18">
     <path d="M 490.5 118.612813 
L 510.5 118.612813 
L 510.5 111.612813 
L 490.5 111.612813 
z
" style="fill: #ffbb78"/>
    </g>
    <g id="text_29">
     <!-- Realme (169) -->
     <g transform="translate(518.5 118.612813) scale(0.1 -0.1)">
      <defs>
       <path id="DejaVuSans-36" d="M 2113 2584 
Q 1688 2584 1439 2293 
Q 1191 2003 1191 1497 
Q 1191 994 1439 701 
Q 1688 409 2113 409 
Q 2538 409 2786 701 
Q 3034 994 3034 1497 
Q 3034 2003 2786 2293 
Q 2538 2584 2113 2584 
z
M 3366 4563 
L 3366 3988 
Q 3128 4100 2886 4159 
Q 2644 4219 2406 4219 
Q 1781 4219 1451 3797 
Q 1122 3375 1075 2522 
Q 1259 2794 1537 2939 
Q 1816 3084 2150 3084 
Q 2853 3084 3261 2657 
Q 3669 2231 3669 1497 
Q 3669 778 3244 343 
Q 2819 -91 2113 -91 
Q 1303 -91 875 529 
Q 447 1150 447 2328 
Q 447 3434 972 4092 
Q 1497 4750 2381 4750 
Q 2619 4750 2861 4703 
Q 3103 4656 3366 4563 
z
" transform="scale(0.015625)"/>
      </defs>
      <use xlink:href="#DejaVuSans-52"/>
      <use xlink:href="#DejaVuSans-65" x="64.982422"/>
      <use xlink:href="#DejaVuSans-61" x="126.505859"/>
      <use xlink:href="#DejaVuSans-6c" x="187.785156"/>
      <use xlink:href="#DejaVuSans-6d" x="215.568359"/>
      <use xlink:href="#DejaVuSans-65" x="312.980469"/>
      <use xlink:href="#DejaVuSans-20" x="374.503906"/>
      <use xlink:href="#DejaVuSans-28" x="406.291016"/>
      <use xlink:href="#DejaVuSans-31" x="445.304688"/>
      <use xlink:href="#DejaVuSans-36" x="508.927734"/>
      <use xlink:href="#DejaVuSans-39" x="572.550781"/>
      <use xlink:href="#DejaVuSans-29" x="636.173828"/>
     </g>
    </g>
    <g id="patch_19">
     <path d="M 490.5 133.290938 
L 510.5 133.290938 
L 510.5 126.290938 
L 490.5 126.290938 
z
" style="fill: #2ca02c"/>
    </g>
    <g id="text_30">
     <!-- Vivo (168) -->
     <g transform="translate(518.5 133.290938) scale(0.1 -0.1)">
      <use xlink:href="#DejaVuSans-56"/>
      <use xlink:href="#DejaVuSans-69" x="66.158203"/>
      <use xlink:href="#DejaVuSans-76" x="93.941406"/>
      <use xlink:href="#DejaVuSans-6f" x="153.121094"/>
      <use xlink:href="#DejaVuSans-20" x="214.302734"/>
      <use xlink:href="#DejaVuSans-28" x="246.089844"/>
      <use xlink:href="#DejaVuSans-31" x="285.103516"/>
      <use xlink:href="#DejaVuSans-36" x="348.726562"/>
      <use xlink:href="#DejaVuSans-38" x="412.349609"/>
      <use xlink:href="#DejaVuSans-29" x="475.972656"/>
     </g>
    </g>
    <g id="patch_20">
     <path d="M 490.5 147.969063 
L 510.5 147.969063 
L 510.5 140.969063 
L 490.5 140.969063 
z
" style="fill: #98df8a"/>
    </g>
    <g id="text_31">
     <!-- Huawei (168) -->
     <g transform="translate(518.5 147.969063) scale(0.1 -0.1)">
      <use xlink:href="#DejaVuSans-48"/>
      <use xlink:href="#DejaVuSans-75" x="75.195312"/>
      <use xlink:href="#DejaVuSans-61" x="138.574219"/>
      <use xlink:href="#DejaVuSans-77" x="199.853516"/>
      <use xlink:href="#DejaVuSans-65" x="281.640625"/>
      <use xlink:href="#DejaVuSans-69" x="343.164062"/>
      <use xlink:href="#DejaVuSans-20" x="370.947266"/>
      <use xlink:href="#DejaVuSans-28" x="402.734375"/>
      <use xlink:href="#DejaVuSans-31" x="441.748047"/>
      <use xlink:href="#DejaVuSans-36" x="505.371094"/>
      <use xlink:href="#DejaVuSans-38" x="568.994141"/>
      <use xlink:href="#DejaVuSans-29" x="632.617188"/>
     </g>
    </g>
    <g id="patch_21">
     <path d="M 490.5 162.647188 
L 510.5 162.647188 
L 510.5 155.647188 
L 490.5 155.647188 
z
" style="fill: #d62728"/>
    </g>
    <g id="text_32">
     <!-- Xiaomi (166) -->
     <g transform="translate(518.5 162.647188) scale(0.1 -0.1)">
      <use xlink:href="#DejaVuSans-58"/>
      <use xlink:href="#DejaVuSans-69" x="68.505859"/>
      <use xlink:href="#DejaVuSans-61" x="96.289062"/>
      <use xlink:href="#DejaVuSans-6f" x="157.568359"/>
      <use xlink:href="#DejaVuSans-6d" x="218.75"/>
      <use xlink:href="#DejaVuSans-69" x="316.162109"/>
      <use xlink:href="#DejaVuSans-20" x="343.945312"/>
      <use xlink:href="#DejaVuSans-28" x="375.732422"/>
      <use xlink:href="#DejaVuSans-31" x="414.746094"/>
      <use xlink:href="#DejaVuSans-36" x="478.369141"/>
      <use xlink:href="#DejaVuSans-36" x="541.992188"/>
      <use xlink:href="#DejaVuSans-29" x="605.615234"/>
     </g>
    </g>
    <g id="patch_22">
     <path d="M 490.5 177.325312 
L 510.5 177.325312 
L 510.5 170.325312 
L 490.5 170.325312 
z
" style="fill: #ff9896"/>
    </g>
    <g id="text_33">
     <!-- Google (165) -->
     <g transform="translate(518.5 177.325312) scale(0.1 -0.1)">
      <use xlink:href="#DejaVuSans-47"/>
      <use xlink:href="#DejaVuSans-6f" x="77.490234"/>
      <use xlink:href="#DejaVuSans-6f" x="138.671875"/>
      <use xlink:href="#DejaVuSans-67" x="199.853516"/>
      <use xlink:href="#DejaVuSans-6c" x="263.330078"/>
      <use xlink:href="#DejaVuSans-65" x="291.113281"/>
      <use xlink:href="#DejaVuSans-20" x="352.636719"/>
      <use xlink:href="#DejaVuSans-28" x="384.423828"/>
      <use xlink:href="#DejaVuSans-31" x="423.4375"/>
      <use xlink:href="#DejaVuSans-36" x="487.060547"/>
      <use xlink:href="#DejaVuSans-35" x="550.683594"/>
      <use xlink:href="#DejaVuSans-29" x="614.306641"/>
     </g>
    </g>
    <g id="patch_23">
     <path d="M 490.5 192.003438 
L 510.5 192.003438 
L 510.5 185.003438 
L 490.5 185.003438 
z
" style="fill: #9467bd"/>
    </g>
    <g id="text_34">
     <!-- Motorola (162) -->
     <g transform="translate(518.5 192.003438) scale(0.1 -0.1)">
      <use xlink:href="#DejaVuSans-4d"/>
      <use xlink:href="#DejaVuSans-6f" x="86.279297"/>
      <use xlink:href="#DejaVuSans-74" x="147.460938"/>
      <use xlink:href="#DejaVuSans-6f" x="186.669922"/>
      <use xlink:href="#DejaVuSans-72" x="247.851562"/>
      <use xlink:href="#DejaVuSans-6f" x="286.714844"/>
      <use xlink:href="#DejaVuSans-6c" x="347.896484"/>
      <use xlink:href="#DejaVuSans-61" x="375.679688"/>
      <use xlink:href="#DejaVuSans-20" x="436.958984"/>
      <use xlink:href="#DejaVuSans-28" x="468.746094"/>
      <use xlink:href="#DejaVuSans-31" x="507.759766"/>
      <use xlink:href="#DejaVuSans-36" x="571.382812"/>
      <use xlink:href="#DejaVuSans-32" x="635.005859"/>
      <use xlink:href="#DejaVuSans-29" x="698.628906"/>
     </g>
    </g>
    <g id="patch_24">
     <path d="M 490.5 206.681562 
L 510.5 206.681562 
L 510.5 199.681562 
L 490.5 199.681562 
z
" style="fill: #c5b0d5"/>
    </g>
    <g id="text_35">
     <!-- Nokia (155) -->
     <g transform="translate(518.5 206.681562) scale(0.1 -0.1)">
      <use xlink:href="#DejaVuSans-4e"/>
      <use xlink:href="#DejaVuSans-6f" x="74.804688"/>
      <use xlink:href="#DejaVuSans-6b" x="135.986328"/>
      <use xlink:href="#DejaVuSans-69" x="193.896484"/>
      <use xlink:href="#DejaVuSans-61" x="221.679688"/>
      <use xlink:href="#DejaVuSans-20" x="282.958984"/>
      <use xlink:href="#DejaVuSans-28" x="314.746094"/>
      <use xlink:href="#DejaVuSans-31" x="353.759766"/>
      <use xlink:href="#DejaVuSans-35" x="417.382812"/>
      <use xlink:href="#DejaVuSans-35" x="481.005859"/>
      <use xlink:href="#DejaVuSans-29" x="544.628906"/>
     </g>
    </g>
    <g id="patch_25">
     <path d="M 490.5 221.359688 
L 510.5 221.359688 
L 510.5 214.359688 
L 490.5 214.359688 
z
" style="fill: #8c564b"/>
    </g>
    <g id="text_36">
     <!-- OnePlus (151) -->
     <g transform="translate(518.5 221.359688) scale(0.1 -0.1)">
      <use xlink:href="#DejaVuSans-4f"/>
      <use xlink:href="#DejaVuSans-6e" x="78.710938"/>
      <use xlink:href="#DejaVuSans-65" x="142.089844"/>
      <use xlink:href="#DejaVuSans-50" x="203.613281"/>
      <use xlink:href="#DejaVuSans-6c" x="263.916016"/>
      <use xlink:href="#DejaVuSans-75" x="291.699219"/>
      <use xlink:href="#DejaVuSans-73" x="355.078125"/>
      <use xlink:href="#DejaVuSans-20" x="407.177734"/>
      <use xlink:href="#DejaVuSans-28" x="438.964844"/>
      <use xlink:href="#DejaVuSans-31" x="477.978516"/>
      <use xlink:href="#DejaVuSans-35" x="541.601562"/>
      <use xlink:href="#DejaVuSans-31" x="605.224609"/>
      <use xlink:href="#DejaVuSans-29" x="668.847656"/>
     </g>
    </g>
    <g id="patch_26">
     <path d="M 490.5 236.037812 
L 510.5 236.037812 
L 510.5 229.037812 
L 490.5 229.037812 
z
" style="fill: #c49c94"/>
    </g>
    <g id="text_37">
     <!-- Sony (143) -->
     <g transform="translate(518.5 236.037812) scale(0.1 -0.1)">
      <use xlink:href="#DejaVuSans-53"/>
      <use xlink:href="#DejaVuSans-6f" x="63.476562"/>
      <use xlink:href="#DejaVuSans-6e" x="124.658203"/>
      <use xlink:href="#DejaVuSans-79" x="188.037109"/>
      <use xlink:href="#DejaVuSans-20" x="247.216797"/>
      <use xlink:href="#DejaVuSans-28" x="279.003906"/>
      <use xlink:href="#DejaVuSans-31" x="318.017578"/>
      <use xlink:href="#DejaVuSans-34" x="381.640625"/>
      <use xlink:href="#DejaVuSans-33" x="445.263672"/>
      <use xlink:href="#DejaVuSans-29" x="508.886719"/>
     </g>
    </g>
   </g>
  </g>
 </g>
</svg>
