<?xml version="1.0" encoding="utf-8" standalone="no"?>
<!DOCTYPE svg PUBLIC "-//W3C//DTD SVG 1.1//EN"
  "http://www.w3.org/Graphics/SVG/1.1/DTD/svg11.dtd">
<svg xmlns:xlink="http://www.w3.org/1999/xlink" width="706.9pt" height="480.942083pt" viewBox="0 0 706.9 480.942083" xmlns="http://www.w3.org/2000/svg" version="1.1">
 <metadata>
  <rdf:RDF xmlns:dc="http://purl.org/dc/elements/1.1/" xmlns:cc="http://creativecommons.org/ns#" xmlns:rdf="http://www.w3.org/1999/02/22-rdf-syntax-ns#">
   <cc:Work>
    <dc:type rdf:resource="http://purl.org/dc/dcmitype/StillImage"/>
    <dc:date>2025-06-14T11:46:53.318350</dc:date>
    <dc:format>image/svg+xml</dc:format>
    <dc:creator>
     <cc:Agent>
      <dc:title>Matplotlib v3.9.2, https://matplotlib.org/</dc:title>
     </cc:Agent>
    </dc:creator>
   </cc:Work>
  </rdf:RDF>
 </metadata>
 <defs>
  <style type="text/css">*{stroke-linejoin: round; stroke-linecap: butt}</style>
 </defs>
 <g id="figure_1">
  <g id="patch_1">
   <path d="M 0 480.942083 
L 706.9 480.942083 
L 706.9 0 
L 0 0 
z
" style="fill: #ffffff"/>
  </g>
  <g id="axes_1">
   <g id="patch_2">
    <path d="M 279.786298 47.239537 
C 236.179122 47.239537 193.844135 62.081631 159.783235 89.311044 
C 125.722335 116.540456 101.922897 154.568415 92.321176 197.105373 
L 279.786298 239.421233 
z
" style="fill: #1f77b4"/>
   </g>
   <g id="patch_3">
    <path d="M 89.592802 208.629234 
C 80.294487 249.822012 84.82775 292.953074 102.487333 331.312465 
C 120.146905 369.67186 149.966952 401.161588 187.308325 420.882782 
L 277.057923 250.945112 
z
" style="fill: #ff7f0e"/>
   </g>
   <g id="patch_4">
    <path d="M 196.056978 426.473476 
C 223.83624 441.144608 254.793695 448.782864 286.209058 448.717079 
C 317.624422 448.651282 348.549695 440.88339 376.267255 426.096025 
L 285.806576 256.535806 
z
" style="fill: #98df8a"/>
   </g>
   <g id="patch_5">
    <path d="M 383.913206 422.280562 
C 408.51245 409.156818 429.963693 390.835736 446.774031 368.592352 
C 463.584369 346.348967 475.354588 320.711501 481.265579 293.464194 
L 293.452527 252.720343 
z
" style="fill: #9467bd"/>
   </g>
   <g id="patch_6">
    <path d="M 483.153824 286.646149 
C 487.515136 266.542225 488.62033 245.867821 486.427171 225.413509 
C 484.234 204.959195 478.770793 184.989074 470.246429 166.266784 
L 295.340771 245.902299 
z
" style="fill: #c49c94"/>
   </g>
   <g id="patch_7">
    <path d="M 468.6169 161.856873 
C 463.999513 151.715584 458.508871 141.99511 452.207037 132.805296 
C 445.905204 123.615481 438.816005 114.991082 431.019659 107.02974 
L 293.711242 241.492388 
z
" style="fill: #7f7f7f"/>
   </g>
   <g id="patch_8">
    <path d="M 429.142055 104.996428 
C 423.97765 99.72272 418.513698 94.750917 412.777371 90.10574 
C 407.041044 85.460563 401.041849 81.149721 394.809639 77.194646 
L 291.833638 239.459076 
z
" style="fill: #dbdb8d"/>
   </g>
   <g id="patch_9">
    <path d="M 391.443291 75.434766 
C 376.124813 65.713375 359.506654 58.209989 342.084233 53.148311 
C 324.661813 48.086633 306.610028 45.5175 288.467225 45.5175 
L 288.46729 237.699196 
z
" style="fill: #9edae5"/>
   </g>
   <g id="matplotlib.axis_1"/>
   <g id="matplotlib.axis_2"/>
   <g id="text_1">
    <!-- Android 11 -->
    <g transform="translate(82.309798 77.611279) scale(0.12 -0.12)">
     <defs>
      <path id="DejaVuSans-41" d="M 2188 4044 
L 1331 1722 
L 3047 1722 
L 2188 4044 
z
M 1831 4666 
L 2547 4666 
L 4325 0 
L 3669 0 
L 3244 1197 
L 1141 1197 
L 716 0 
L 50 0 
L 1831 4666 
z
" transform="scale(0.015625)"/>
      <path id="DejaVuSans-6e" d="M 3513 2113 
L 3513 0 
L 2938 0 
L 2938 2094 
Q 2938 2591 2744 2837 
Q 2550 3084 2163 3084 
Q 1697 3084 1428 2787 
Q 1159 2491 1159 1978 
L 1159 0 
L 581 0 
L 581 3500 
L 1159 3500 
L 1159 2956 
Q 1366 3272 1645 3428 
Q 1925 3584 2291 3584 
Q 2894 3584 3203 3211 
Q 3513 2838 3513 2113 
z
" transform="scale(0.015625)"/>
      <path id="DejaVuSans-64" d="M 2906 2969 
L 2906 4863 
L 3481 4863 
L 3481 0 
L 2906 0 
L 2906 525 
Q 2725 213 2448 61 
Q 2172 -91 1784 -91 
Q 1150 -91 751 415 
Q 353 922 353 1747 
Q 353 2572 751 3078 
Q 1150 3584 1784 3584 
Q 2172 3584 2448 3432 
Q 2725 3281 2906 2969 
z
M 947 1747 
Q 947 1113 1208 752 
Q 1469 391 1925 391 
Q 2381 391 2643 752 
Q 2906 1113 2906 1747 
Q 2906 2381 2643 2742 
Q 2381 3103 1925 3103 
Q 1469 3103 1208 2742 
Q 947 2381 947 1747 
z
" transform="scale(0.015625)"/>
      <path id="DejaVuSans-72" d="M 2631 2963 
Q 2534 3019 2420 3045 
Q 2306 3072 2169 3072 
Q 1681 3072 1420 2755 
Q 1159 2438 1159 1844 
L 1159 0 
L 581 0 
L 581 3500 
L 1159 3500 
L 1159 2956 
Q 1341 3275 1631 3429 
Q 1922 3584 2338 3584 
Q 2397 3584 2469 3576 
Q 2541 3569 2628 3553 
L 2631 2963 
z
" transform="scale(0.015625)"/>
      <path id="DejaVuSans-6f" d="M 1959 3097 
Q 1497 3097 1228 2736 
Q 959 2375 959 1747 
Q 959 1119 1226 758 
Q 1494 397 1959 397 
Q 2419 397 2687 759 
Q 2956 1122 2956 1747 
Q 2956 2369 2687 2733 
Q 2419 3097 1959 3097 
z
M 1959 3584 
Q 2709 3584 3137 3096 
Q 3566 2609 3566 1747 
Q 3566 888 3137 398 
Q 2709 -91 1959 -91 
Q 1206 -91 779 398 
Q 353 888 353 1747 
Q 353 2609 779 3096 
Q 1206 3584 1959 3584 
z
" transform="scale(0.015625)"/>
      <path id="DejaVuSans-69" d="M 603 3500 
L 1178 3500 
L 1178 0 
L 603 0 
L 603 3500 
z
M 603 4863 
L 1178 4863 
L 1178 4134 
L 603 4134 
L 603 4863 
z
" transform="scale(0.015625)"/>
      <path id="DejaVuSans-20" transform="scale(0.015625)"/>
      <path id="DejaVuSans-31" d="M 794 531 
L 1825 531 
L 1825 4091 
L 703 3866 
L 703 4441 
L 1819 4666 
L 2450 4666 
L 2450 531 
L 3481 531 
L 3481 0 
L 794 0 
L 794 531 
z
" transform="scale(0.015625)"/>
     </defs>
     <use xlink:href="#DejaVuSans-41"/>
     <use xlink:href="#DejaVuSans-6e" x="68.408203"/>
     <use xlink:href="#DejaVuSans-64" x="131.787109"/>
     <use xlink:href="#DejaVuSans-72" x="195.263672"/>
     <use xlink:href="#DejaVuSans-6f" x="234.126953"/>
     <use xlink:href="#DejaVuSans-69" x="295.308594"/>
     <use xlink:href="#DejaVuSans-64" x="323.091797"/>
     <use xlink:href="#DejaVuSans-20" x="386.568359"/>
     <use xlink:href="#DejaVuSans-31" x="418.355469"/>
     <use xlink:href="#DejaVuSans-31" x="481.978516"/>
    </g>
   </g>
   <g id="text_2">
    <!-- 21.5% -->
    <g style="fill: #ffffff" transform="translate(188.724145 152.666372) scale(0.12 -0.12)">
     <defs>
      <path id="DejaVuSans-32" d="M 1228 531 
L 3431 531 
L 3431 0 
L 469 0 
L 469 531 
Q 828 903 1448 1529 
Q 2069 2156 2228 2338 
Q 2531 2678 2651 2914 
Q 2772 3150 2772 3378 
Q 2772 3750 2511 3984 
Q 2250 4219 1831 4219 
Q 1534 4219 1204 4116 
Q 875 4013 500 3803 
L 500 4441 
Q 881 4594 1212 4672 
Q 1544 4750 1819 4750 
Q 2544 4750 2975 4387 
Q 3406 4025 3406 3419 
Q 3406 3131 3298 2873 
Q 3191 2616 2906 2266 
Q 2828 2175 2409 1742 
Q 1991 1309 1228 531 
z
" transform="scale(0.015625)"/>
      <path id="DejaVuSans-2e" d="M 684 794 
L 1344 794 
L 1344 0 
L 684 0 
L 684 794 
z
" transform="scale(0.015625)"/>
      <path id="DejaVuSans-35" d="M 691 4666 
L 3169 4666 
L 3169 4134 
L 1269 4134 
L 1269 2991 
Q 1406 3038 1543 3061 
Q 1681 3084 1819 3084 
Q 2600 3084 3056 2656 
Q 3513 2228 3513 1497 
Q 3513 744 3044 326 
Q 2575 -91 1722 -91 
Q 1428 -91 1123 -41 
Q 819 9 494 109 
L 494 744 
Q 775 591 1075 516 
Q 1375 441 1709 441 
Q 2250 441 2565 725 
Q 2881 1009 2881 1497 
Q 2881 1984 2565 2268 
Q 2250 2553 1709 2553 
Q 1456 2553 1204 2497 
Q 953 2441 691 2322 
L 691 4666 
z
" transform="scale(0.015625)"/>
      <path id="DejaVuSans-25" d="M 4653 2053 
Q 4381 2053 4226 1822 
Q 4072 1591 4072 1178 
Q 4072 772 4226 539 
Q 4381 306 4653 306 
Q 4919 306 5073 539 
Q 5228 772 5228 1178 
Q 5228 1588 5073 1820 
Q 4919 2053 4653 2053 
z
M 4653 2450 
Q 5147 2450 5437 2106 
Q 5728 1763 5728 1178 
Q 5728 594 5436 251 
Q 5144 -91 4653 -91 
Q 4153 -91 3862 251 
Q 3572 594 3572 1178 
Q 3572 1766 3864 2108 
Q 4156 2450 4653 2450 
z
M 1428 4353 
Q 1159 4353 1004 4120 
Q 850 3888 850 3481 
Q 850 3069 1003 2837 
Q 1156 2606 1428 2606 
Q 1700 2606 1854 2837 
Q 2009 3069 2009 3481 
Q 2009 3884 1853 4118 
Q 1697 4353 1428 4353 
z
M 4250 4750 
L 4750 4750 
L 1831 -91 
L 1331 -91 
L 4250 4750 
z
M 1428 4750 
Q 1922 4750 2215 4408 
Q 2509 4066 2509 3481 
Q 2509 2891 2217 2550 
Q 1925 2209 1428 2209 
Q 931 2209 642 2551 
Q 353 2894 353 3481 
Q 353 4063 643 4406 
Q 934 4750 1428 4750 
z
" transform="scale(0.015625)"/>
     </defs>
     <use xlink:href="#DejaVuSans-32"/>
     <use xlink:href="#DejaVuSans-31" x="63.623047"/>
     <use xlink:href="#DejaVuSans-2e" x="127.246094"/>
     <use xlink:href="#DejaVuSans-35" x="159.033203"/>
     <use xlink:href="#DejaVuSans-25" x="222.65625"/>
    </g>
   </g>
   <g id="text_3">
    <!-- Android 10 -->
    <g transform="translate(19.557164 342.660498) scale(0.12 -0.12)">
     <defs>
      <path id="DejaVuSans-30" d="M 2034 4250 
Q 1547 4250 1301 3770 
Q 1056 3291 1056 2328 
Q 1056 1369 1301 889 
Q 1547 409 2034 409 
Q 2525 409 2770 889 
Q 3016 1369 3016 2328 
Q 3016 3291 2770 3770 
Q 2525 4250 2034 4250 
z
M 2034 4750 
Q 2819 4750 3233 4129 
Q 3647 3509 3647 2328 
Q 3647 1150 3233 529 
Q 2819 -91 2034 -91 
Q 1250 -91 836 529 
Q 422 1150 422 2328 
Q 422 3509 836 4129 
Q 1250 4750 2034 4750 
z
" transform="scale(0.015625)"/>
     </defs>
     <use xlink:href="#DejaVuSans-41"/>
     <use xlink:href="#DejaVuSans-6e" x="68.408203"/>
     <use xlink:href="#DejaVuSans-64" x="131.787109"/>
     <use xlink:href="#DejaVuSans-72" x="195.263672"/>
     <use xlink:href="#DejaVuSans-6f" x="234.126953"/>
     <use xlink:href="#DejaVuSans-69" x="295.308594"/>
     <use xlink:href="#DejaVuSans-64" x="323.091797"/>
     <use xlink:href="#DejaVuSans-20" x="386.568359"/>
     <use xlink:href="#DejaVuSans-31" x="418.355469"/>
     <use xlink:href="#DejaVuSans-30" x="481.978516"/>
    </g>
   </g>
   <g id="text_4">
    <!-- 20.8% -->
    <g style="fill: #ffffff" transform="translate(153.255265 302.4768) scale(0.12 -0.12)">
     <defs>
      <path id="DejaVuSans-38" d="M 2034 2216 
Q 1584 2216 1326 1975 
Q 1069 1734 1069 1313 
Q 1069 891 1326 650 
Q 1584 409 2034 409 
Q 2484 409 2743 651 
Q 3003 894 3003 1313 
Q 3003 1734 2745 1975 
Q 2488 2216 2034 2216 
z
M 1403 2484 
Q 997 2584 770 2862 
Q 544 3141 544 3541 
Q 544 4100 942 4425 
Q 1341 4750 2034 4750 
Q 2731 4750 3128 4425 
Q 3525 4100 3525 3541 
Q 3525 3141 3298 2862 
Q 3072 2584 2669 2484 
Q 3125 2378 3379 2068 
Q 3634 1759 3634 1313 
Q 3634 634 3220 271 
Q 2806 -91 2034 -91 
Q 1263 -91 848 271 
Q 434 634 434 1313 
Q 434 1759 690 2068 
Q 947 2378 1403 2484 
z
M 1172 3481 
Q 1172 3119 1398 2916 
Q 1625 2713 2034 2713 
Q 2441 2713 2670 2916 
Q 2900 3119 2900 3481 
Q 2900 3844 2670 4047 
Q 2441 4250 2034 4250 
Q 1625 4250 1398 4047 
Q 1172 3844 1172 3481 
z
" transform="scale(0.015625)"/>
     </defs>
     <use xlink:href="#DejaVuSans-32"/>
     <use xlink:href="#DejaVuSans-30" x="63.623047"/>
     <use xlink:href="#DejaVuSans-2e" x="127.246094"/>
     <use xlink:href="#DejaVuSans-38" x="159.033203"/>
     <use xlink:href="#DejaVuSans-25" x="222.65625"/>
    </g>
   </g>
   <g id="text_5">
    <!-- Android 12 -->
    <g transform="translate(286.249306 471.246458) scale(0.12 -0.12)">
     <use xlink:href="#DejaVuSans-41"/>
     <use xlink:href="#DejaVuSans-6e" x="68.408203"/>
     <use xlink:href="#DejaVuSans-64" x="131.787109"/>
     <use xlink:href="#DejaVuSans-72" x="195.263672"/>
     <use xlink:href="#DejaVuSans-6f" x="234.126953"/>
     <use xlink:href="#DejaVuSans-69" x="295.308594"/>
     <use xlink:href="#DejaVuSans-64" x="323.091797"/>
     <use xlink:href="#DejaVuSans-20" x="386.568359"/>
     <use xlink:href="#DejaVuSans-31" x="418.355469"/>
     <use xlink:href="#DejaVuSans-32" x="481.978516"/>
    </g>
   </g>
   <g id="text_6">
    <!-- 15.5% -->
    <g style="fill: #ffffff" transform="translate(266.987753 375.155821) scale(0.12 -0.12)">
     <use xlink:href="#DejaVuSans-31"/>
     <use xlink:href="#DejaVuSans-35" x="63.623047"/>
     <use xlink:href="#DejaVuSans-2e" x="127.246094"/>
     <use xlink:href="#DejaVuSans-35" x="159.033203"/>
     <use xlink:href="#DejaVuSans-25" x="222.65625"/>
    </g>
   </g>
   <g id="text_7">
    <!-- Android 9.0 -->
    <g transform="translate(462.106177 383.4908) scale(0.12 -0.12)">
     <defs>
      <path id="DejaVuSans-39" d="M 703 97 
L 703 672 
Q 941 559 1184 500 
Q 1428 441 1663 441 
Q 2288 441 2617 861 
Q 2947 1281 2994 2138 
Q 2813 1869 2534 1725 
Q 2256 1581 1919 1581 
Q 1219 1581 811 2004 
Q 403 2428 403 3163 
Q 403 3881 828 4315 
Q 1253 4750 1959 4750 
Q 2769 4750 3195 4129 
Q 3622 3509 3622 2328 
Q 3622 1225 3098 567 
Q 2575 -91 1691 -91 
Q 1453 -91 1209 -44 
Q 966 3 703 97 
z
M 1959 2075 
Q 2384 2075 2632 2365 
Q 2881 2656 2881 3163 
Q 2881 3666 2632 3958 
Q 2384 4250 1959 4250 
Q 1534 4250 1286 3958 
Q 1038 3666 1038 3163 
Q 1038 2656 1286 2365 
Q 1534 2075 1959 2075 
z
" transform="scale(0.015625)"/>
     </defs>
     <use xlink:href="#DejaVuSans-41"/>
     <use xlink:href="#DejaVuSans-6e" x="68.408203"/>
     <use xlink:href="#DejaVuSans-64" x="131.787109"/>
     <use xlink:href="#DejaVuSans-72" x="195.263672"/>
     <use xlink:href="#DejaVuSans-6f" x="234.126953"/>
     <use xlink:href="#DejaVuSans-69" x="295.308594"/>
     <use xlink:href="#DejaVuSans-64" x="323.091797"/>
     <use xlink:href="#DejaVuSans-20" x="386.568359"/>
     <use xlink:href="#DejaVuSans-39" x="418.355469"/>
     <use xlink:href="#DejaVuSans-2e" x="481.978516"/>
     <use xlink:href="#DejaVuSans-30" x="513.765625"/>
    </g>
   </g>
   <g id="text_8">
    <!-- 13.8% -->
    <g style="fill: #ffffff" transform="translate(366.385114 325.554797) scale(0.12 -0.12)">
     <defs>
      <path id="DejaVuSans-33" d="M 2597 2516 
Q 3050 2419 3304 2112 
Q 3559 1806 3559 1356 
Q 3559 666 3084 287 
Q 2609 -91 1734 -91 
Q 1441 -91 1130 -33 
Q 819 25 488 141 
L 488 750 
Q 750 597 1062 519 
Q 1375 441 1716 441 
Q 2309 441 2620 675 
Q 2931 909 2931 1356 
Q 2931 1769 2642 2001 
Q 2353 2234 1838 2234 
L 1294 2234 
L 1294 2753 
L 1863 2753 
Q 2328 2753 2575 2939 
Q 2822 3125 2822 3475 
Q 2822 3834 2567 4026 
Q 2313 4219 1838 4219 
Q 1578 4219 1281 4162 
Q 984 4106 628 3988 
L 628 4550 
Q 988 4650 1302 4700 
Q 1616 4750 1894 4750 
Q 2613 4750 3031 4423 
Q 3450 4097 3450 3541 
Q 3450 3153 3228 2886 
Q 3006 2619 2597 2516 
z
" transform="scale(0.015625)"/>
     </defs>
     <use xlink:href="#DejaVuSans-31"/>
     <use xlink:href="#DejaVuSans-33" x="63.623047"/>
     <use xlink:href="#DejaVuSans-2e" x="127.246094"/>
     <use xlink:href="#DejaVuSans-38" x="159.033203"/>
     <use xlink:href="#DejaVuSans-25" x="222.65625"/>
    </g>
   </g>
   <g id="text_9">
    <!-- Android 13 -->
    <g transform="translate(505.535805 226.675779) scale(0.12 -0.12)">
     <use xlink:href="#DejaVuSans-41"/>
     <use xlink:href="#DejaVuSans-6e" x="68.408203"/>
     <use xlink:href="#DejaVuSans-64" x="131.787109"/>
     <use xlink:href="#DejaVuSans-72" x="195.263672"/>
     <use xlink:href="#DejaVuSans-6f" x="234.126953"/>
     <use xlink:href="#DejaVuSans-69" x="295.308594"/>
     <use xlink:href="#DejaVuSans-64" x="323.091797"/>
     <use xlink:href="#DejaVuSans-20" x="386.568359"/>
     <use xlink:href="#DejaVuSans-31" x="418.355469"/>
     <use xlink:href="#DejaVuSans-33" x="481.978516"/>
    </g>
   </g>
   <g id="text_10">
    <!-- 10.2% -->
    <g style="fill: #ffffff" transform="translate(390.932295 236.92022) scale(0.12 -0.12)">
     <use xlink:href="#DejaVuSans-31"/>
     <use xlink:href="#DejaVuSans-30" x="63.623047"/>
     <use xlink:href="#DejaVuSans-2e" x="127.246094"/>
     <use xlink:href="#DejaVuSans-32" x="159.033203"/>
     <use xlink:href="#DejaVuSans-25" x="222.65625"/>
    </g>
   </g>
   <g id="text_11">
    <!-- Android 8.1 -->
    <g transform="translate(468.056625 125.247832) scale(0.12 -0.12)">
     <use xlink:href="#DejaVuSans-41"/>
     <use xlink:href="#DejaVuSans-6e" x="68.408203"/>
     <use xlink:href="#DejaVuSans-64" x="131.787109"/>
     <use xlink:href="#DejaVuSans-72" x="195.263672"/>
     <use xlink:href="#DejaVuSans-6f" x="234.126953"/>
     <use xlink:href="#DejaVuSans-69" x="295.308594"/>
     <use xlink:href="#DejaVuSans-64" x="323.091797"/>
     <use xlink:href="#DejaVuSans-20" x="386.568359"/>
     <use xlink:href="#DejaVuSans-38" x="418.355469"/>
     <use xlink:href="#DejaVuSans-2e" x="481.978516"/>
     <use xlink:href="#DejaVuSans-31" x="513.765625"/>
    </g>
   </g>
   <g id="text_12">
    <!-- 5.5% -->
    <g style="fill: #ffffff" transform="translate(373.565911 179.59138) scale(0.12 -0.12)">
     <use xlink:href="#DejaVuSans-35"/>
     <use xlink:href="#DejaVuSans-2e" x="63.623047"/>
     <use xlink:href="#DejaVuSans-35" x="95.410156"/>
     <use xlink:href="#DejaVuSans-25" x="159.033203"/>
    </g>
   </g>
   <g id="text_13">
    <!-- Android 8.0 -->
    <g transform="translate(424.871744 78.48166) scale(0.12 -0.12)">
     <use xlink:href="#DejaVuSans-41"/>
     <use xlink:href="#DejaVuSans-6e" x="68.408203"/>
     <use xlink:href="#DejaVuSans-64" x="131.787109"/>
     <use xlink:href="#DejaVuSans-72" x="195.263672"/>
     <use xlink:href="#DejaVuSans-6f" x="234.126953"/>
     <use xlink:href="#DejaVuSans-69" x="295.308594"/>
     <use xlink:href="#DejaVuSans-64" x="323.091797"/>
     <use xlink:href="#DejaVuSans-20" x="386.568359"/>
     <use xlink:href="#DejaVuSans-38" x="418.355469"/>
     <use xlink:href="#DejaVuSans-2e" x="481.978516"/>
     <use xlink:href="#DejaVuSans-30" x="513.765625"/>
    </g>
   </g>
   <g id="text_14">
    <!-- 3.7% -->
    <g style="fill: #ffffff" transform="translate(349.157065 153.158327) scale(0.12 -0.12)">
     <defs>
      <path id="DejaVuSans-37" d="M 525 4666 
L 3525 4666 
L 3525 4397 
L 1831 0 
L 1172 0 
L 2766 4134 
L 525 4134 
L 525 4666 
z
" transform="scale(0.015625)"/>
     </defs>
     <use xlink:href="#DejaVuSans-33"/>
     <use xlink:href="#DejaVuSans-2e" x="63.623047"/>
     <use xlink:href="#DejaVuSans-37" x="95.410156"/>
     <use xlink:href="#DejaVuSans-25" x="159.033203"/>
    </g>
   </g>
   <g id="text_15">
    <!-- Other -->
    <g transform="translate(347.445734 38.004421) scale(0.12 -0.12)">
     <defs>
      <path id="DejaVuSans-4f" d="M 2522 4238 
Q 1834 4238 1429 3725 
Q 1025 3213 1025 2328 
Q 1025 1447 1429 934 
Q 1834 422 2522 422 
Q 3209 422 3611 934 
Q 4013 1447 4013 2328 
Q 4013 3213 3611 3725 
Q 3209 4238 2522 4238 
z
M 2522 4750 
Q 3503 4750 4090 4092 
Q 4678 3434 4678 2328 
Q 4678 1225 4090 567 
Q 3503 -91 2522 -91 
Q 1538 -91 948 565 
Q 359 1222 359 2328 
Q 359 3434 948 4092 
Q 1538 4750 2522 4750 
z
" transform="scale(0.015625)"/>
      <path id="DejaVuSans-74" d="M 1172 4494 
L 1172 3500 
L 2356 3500 
L 2356 3053 
L 1172 3053 
L 1172 1153 
Q 1172 725 1289 603 
Q 1406 481 1766 481 
L 2356 481 
L 2356 0 
L 1766 0 
Q 1100 0 847 248 
Q 594 497 594 1153 
L 594 3053 
L 172 3053 
L 172 3500 
L 594 3500 
L 594 4494 
L 1172 4494 
z
" transform="scale(0.015625)"/>
      <path id="DejaVuSans-68" d="M 3513 2113 
L 3513 0 
L 2938 0 
L 2938 2094 
Q 2938 2591 2744 2837 
Q 2550 3084 2163 3084 
Q 1697 3084 1428 2787 
Q 1159 2491 1159 1978 
L 1159 0 
L 581 0 
L 581 4863 
L 1159 4863 
L 1159 2956 
Q 1366 3272 1645 3428 
Q 1925 3584 2291 3584 
Q 2894 3584 3203 3211 
Q 3513 2838 3513 2113 
z
" transform="scale(0.015625)"/>
      <path id="DejaVuSans-65" d="M 3597 1894 
L 3597 1613 
L 953 1613 
Q 991 1019 1311 708 
Q 1631 397 2203 397 
Q 2534 397 2845 478 
Q 3156 559 3463 722 
L 3463 178 
Q 3153 47 2828 -22 
Q 2503 -91 2169 -91 
Q 1331 -91 842 396 
Q 353 884 353 1716 
Q 353 2575 817 3079 
Q 1281 3584 2069 3584 
Q 2775 3584 3186 3129 
Q 3597 2675 3597 1894 
z
M 3022 2063 
Q 3016 2534 2758 2815 
Q 2500 3097 2075 3097 
Q 1594 3097 1305 2825 
Q 1016 2553 972 2059 
L 3022 2063 
z
" transform="scale(0.015625)"/>
     </defs>
     <use xlink:href="#DejaVuSans-4f"/>
     <use xlink:href="#DejaVuSans-74" x="78.710938"/>
     <use xlink:href="#DejaVuSans-68" x="117.919922"/>
     <use xlink:href="#DejaVuSans-65" x="181.298828"/>
     <use xlink:href="#DejaVuSans-72" x="242.822266"/>
    </g>
   </g>
   <g id="text_16">
    <!-- 9.0% -->
    <g style="fill: #ffffff" transform="translate(305.394538 130.279887) scale(0.12 -0.12)">
     <use xlink:href="#DejaVuSans-39"/>
     <use xlink:href="#DejaVuSans-2e" x="63.623047"/>
     <use xlink:href="#DejaVuSans-30" x="95.410156"/>
     <use xlink:href="#DejaVuSans-25" x="159.033203"/>
    </g>
   </g>
   <g id="text_17">
    <!-- Smartphone Distribution by Operating System -->
    <g transform="translate(100.48125 19.3575) scale(0.16 -0.16)">
     <defs>
      <path id="DejaVuSans-53" d="M 3425 4513 
L 3425 3897 
Q 3066 4069 2747 4153 
Q 2428 4238 2131 4238 
Q 1616 4238 1336 4038 
Q 1056 3838 1056 3469 
Q 1056 3159 1242 3001 
Q 1428 2844 1947 2747 
L 2328 2669 
Q 3034 2534 3370 2195 
Q 3706 1856 3706 1288 
Q 3706 609 3251 259 
Q 2797 -91 1919 -91 
Q 1588 -91 1214 -16 
Q 841 59 441 206 
L 441 856 
Q 825 641 1194 531 
Q 1563 422 1919 422 
Q 2459 422 2753 634 
Q 3047 847 3047 1241 
Q 3047 1584 2836 1778 
Q 2625 1972 2144 2069 
L 1759 2144 
Q 1053 2284 737 2584 
Q 422 2884 422 3419 
Q 422 4038 858 4394 
Q 1294 4750 2059 4750 
Q 2388 4750 2728 4690 
Q 3069 4631 3425 4513 
z
" transform="scale(0.015625)"/>
      <path id="DejaVuSans-6d" d="M 3328 2828 
Q 3544 3216 3844 3400 
Q 4144 3584 4550 3584 
Q 5097 3584 5394 3201 
Q 5691 2819 5691 2113 
L 5691 0 
L 5113 0 
L 5113 2094 
Q 5113 2597 4934 2840 
Q 4756 3084 4391 3084 
Q 3944 3084 3684 2787 
Q 3425 2491 3425 1978 
L 3425 0 
L 2847 0 
L 2847 2094 
Q 2847 2600 2669 2842 
Q 2491 3084 2119 3084 
Q 1678 3084 1418 2786 
Q 1159 2488 1159 1978 
L 1159 0 
L 581 0 
L 581 3500 
L 1159 3500 
L 1159 2956 
Q 1356 3278 1631 3431 
Q 1906 3584 2284 3584 
Q 2666 3584 2933 3390 
Q 3200 3197 3328 2828 
z
" transform="scale(0.015625)"/>
      <path id="DejaVuSans-61" d="M 2194 1759 
Q 1497 1759 1228 1600 
Q 959 1441 959 1056 
Q 959 750 1161 570 
Q 1363 391 1709 391 
Q 2188 391 2477 730 
Q 2766 1069 2766 1631 
L 2766 1759 
L 2194 1759 
z
M 3341 1997 
L 3341 0 
L 2766 0 
L 2766 531 
Q 2569 213 2275 61 
Q 1981 -91 1556 -91 
Q 1019 -91 701 211 
Q 384 513 384 1019 
Q 384 1609 779 1909 
Q 1175 2209 1959 2209 
L 2766 2209 
L 2766 2266 
Q 2766 2663 2505 2880 
Q 2244 3097 1772 3097 
Q 1472 3097 1187 3025 
Q 903 2953 641 2809 
L 641 3341 
Q 956 3463 1253 3523 
Q 1550 3584 1831 3584 
Q 2591 3584 2966 3190 
Q 3341 2797 3341 1997 
z
" transform="scale(0.015625)"/>
      <path id="DejaVuSans-70" d="M 1159 525 
L 1159 -1331 
L 581 -1331 
L 581 3500 
L 1159 3500 
L 1159 2969 
Q 1341 3281 1617 3432 
Q 1894 3584 2278 3584 
Q 2916 3584 3314 3078 
Q 3713 2572 3713 1747 
Q 3713 922 3314 415 
Q 2916 -91 2278 -91 
Q 1894 -91 1617 61 
Q 1341 213 1159 525 
z
M 3116 1747 
Q 3116 2381 2855 2742 
Q 2594 3103 2138 3103 
Q 1681 3103 1420 2742 
Q 1159 2381 1159 1747 
Q 1159 1113 1420 752 
Q 1681 391 2138 391 
Q 2594 391 2855 752 
Q 3116 1113 3116 1747 
z
" transform="scale(0.015625)"/>
      <path id="DejaVuSans-44" d="M 1259 4147 
L 1259 519 
L 2022 519 
Q 2988 519 3436 956 
Q 3884 1394 3884 2338 
Q 3884 3275 3436 3711 
Q 2988 4147 2022 4147 
L 1259 4147 
z
M 628 4666 
L 1925 4666 
Q 3281 4666 3915 4102 
Q 4550 3538 4550 2338 
Q 4550 1131 3912 565 
Q 3275 0 1925 0 
L 628 0 
L 628 4666 
z
" transform="scale(0.015625)"/>
      <path id="DejaVuSans-73" d="M 2834 3397 
L 2834 2853 
Q 2591 2978 2328 3040 
Q 2066 3103 1784 3103 
Q 1356 3103 1142 2972 
Q 928 2841 928 2578 
Q 928 2378 1081 2264 
Q 1234 2150 1697 2047 
L 1894 2003 
Q 2506 1872 2764 1633 
Q 3022 1394 3022 966 
Q 3022 478 2636 193 
Q 2250 -91 1575 -91 
Q 1294 -91 989 -36 
Q 684 19 347 128 
L 347 722 
Q 666 556 975 473 
Q 1284 391 1588 391 
Q 1994 391 2212 530 
Q 2431 669 2431 922 
Q 2431 1156 2273 1281 
Q 2116 1406 1581 1522 
L 1381 1569 
Q 847 1681 609 1914 
Q 372 2147 372 2553 
Q 372 3047 722 3315 
Q 1072 3584 1716 3584 
Q 2034 3584 2315 3537 
Q 2597 3491 2834 3397 
z
" transform="scale(0.015625)"/>
      <path id="DejaVuSans-62" d="M 3116 1747 
Q 3116 2381 2855 2742 
Q 2594 3103 2138 3103 
Q 1681 3103 1420 2742 
Q 1159 2381 1159 1747 
Q 1159 1113 1420 752 
Q 1681 391 2138 391 
Q 2594 391 2855 752 
Q 3116 1113 3116 1747 
z
M 1159 2969 
Q 1341 3281 1617 3432 
Q 1894 3584 2278 3584 
Q 2916 3584 3314 3078 
Q 3713 2572 3713 1747 
Q 3713 922 3314 415 
Q 2916 -91 2278 -91 
Q 1894 -91 1617 61 
Q 1341 213 1159 525 
L 1159 0 
L 581 0 
L 581 4863 
L 1159 4863 
L 1159 2969 
z
" transform="scale(0.015625)"/>
      <path id="DejaVuSans-75" d="M 544 1381 
L 544 3500 
L 1119 3500 
L 1119 1403 
Q 1119 906 1312 657 
Q 1506 409 1894 409 
Q 2359 409 2629 706 
Q 2900 1003 2900 1516 
L 2900 3500 
L 3475 3500 
L 3475 0 
L 2900 0 
L 2900 538 
Q 2691 219 2414 64 
Q 2138 -91 1772 -91 
Q 1169 -91 856 284 
Q 544 659 544 1381 
z
M 1991 3584 
L 1991 3584 
z
" transform="scale(0.015625)"/>
      <path id="DejaVuSans-79" d="M 2059 -325 
Q 1816 -950 1584 -1140 
Q 1353 -1331 966 -1331 
L 506 -1331 
L 506 -850 
L 844 -850 
Q 1081 -850 1212 -737 
Q 1344 -625 1503 -206 
L 1606 56 
L 191 3500 
L 800 3500 
L 1894 763 
L 2988 3500 
L 3597 3500 
L 2059 -325 
z
" transform="scale(0.015625)"/>
      <path id="DejaVuSans-67" d="M 2906 1791 
Q 2906 2416 2648 2759 
Q 2391 3103 1925 3103 
Q 1463 3103 1205 2759 
Q 947 2416 947 1791 
Q 947 1169 1205 825 
Q 1463 481 1925 481 
Q 2391 481 2648 825 
Q 2906 1169 2906 1791 
z
M 3481 434 
Q 3481 -459 3084 -895 
Q 2688 -1331 1869 -1331 
Q 1566 -1331 1297 -1286 
Q 1028 -1241 775 -1147 
L 775 -588 
Q 1028 -725 1275 -790 
Q 1522 -856 1778 -856 
Q 2344 -856 2625 -561 
Q 2906 -266 2906 331 
L 2906 616 
Q 2728 306 2450 153 
Q 2172 0 1784 0 
Q 1141 0 747 490 
Q 353 981 353 1791 
Q 353 2603 747 3093 
Q 1141 3584 1784 3584 
Q 2172 3584 2450 3431 
Q 2728 3278 2906 2969 
L 2906 3500 
L 3481 3500 
L 3481 434 
z
" transform="scale(0.015625)"/>
     </defs>
     <use xlink:href="#DejaVuSans-53"/>
     <use xlink:href="#DejaVuSans-6d" x="63.476562"/>
     <use xlink:href="#DejaVuSans-61" x="160.888672"/>
     <use xlink:href="#DejaVuSans-72" x="222.167969"/>
     <use xlink:href="#DejaVuSans-74" x="263.28125"/>
     <use xlink:href="#DejaVuSans-70" x="302.490234"/>
     <use xlink:href="#DejaVuSans-68" x="365.966797"/>
     <use xlink:href="#DejaVuSans-6f" x="429.345703"/>
     <use xlink:href="#DejaVuSans-6e" x="490.527344"/>
     <use xlink:href="#DejaVuSans-65" x="553.90625"/>
     <use xlink:href="#DejaVuSans-20" x="615.429688"/>
     <use xlink:href="#DejaVuSans-44" x="647.216797"/>
     <use xlink:href="#DejaVuSans-69" x="724.21875"/>
     <use xlink:href="#DejaVuSans-73" x="752.001953"/>
     <use xlink:href="#DejaVuSans-74" x="804.101562"/>
     <use xlink:href="#DejaVuSans-72" x="843.310547"/>
     <use xlink:href="#DejaVuSans-69" x="884.423828"/>
     <use xlink:href="#DejaVuSans-62" x="912.207031"/>
     <use xlink:href="#DejaVuSans-75" x="975.683594"/>
     <use xlink:href="#DejaVuSans-74" x="1039.0625"/>
     <use xlink:href="#DejaVuSans-69" x="1078.271484"/>
     <use xlink:href="#DejaVuSans-6f" x="1106.054688"/>
     <use xlink:href="#DejaVuSans-6e" x="1167.236328"/>
     <use xlink:href="#DejaVuSans-20" x="1230.615234"/>
     <use xlink:href="#DejaVuSans-62" x="1262.402344"/>
     <use xlink:href="#DejaVuSans-79" x="1325.878906"/>
     <use xlink:href="#DejaVuSans-20" x="1385.058594"/>
     <use xlink:href="#DejaVuSans-4f" x="1416.845703"/>
     <use xlink:href="#DejaVuSans-70" x="1495.556641"/>
     <use xlink:href="#DejaVuSans-65" x="1559.033203"/>
     <use xlink:href="#DejaVuSans-72" x="1620.556641"/>
     <use xlink:href="#DejaVuSans-61" x="1661.669922"/>
     <use xlink:href="#DejaVuSans-74" x="1722.949219"/>
     <use xlink:href="#DejaVuSans-69" x="1762.158203"/>
     <use xlink:href="#DejaVuSans-6e" x="1789.941406"/>
     <use xlink:href="#DejaVuSans-67" x="1853.320312"/>
     <use xlink:href="#DejaVuSans-20" x="1916.796875"/>
     <use xlink:href="#DejaVuSans-53" x="1948.583984"/>
     <use xlink:href="#DejaVuSans-79" x="2012.060547"/>
     <use xlink:href="#DejaVuSans-73" x="2071.240234"/>
     <use xlink:href="#DejaVuSans-74" x="2123.339844"/>
     <use xlink:href="#DejaVuSans-65" x="2162.548828"/>
     <use xlink:href="#DejaVuSans-6d" x="2224.072266"/>
    </g>
   </g>
   <g id="legend_1">
    <g id="patch_10">
     <path d="M 577.892188 307.33 
L 697.7 307.33 
Q 699.7 307.33 699.7 305.33 
L 699.7 188.905 
Q 699.7 186.905 697.7 186.905 
L 577.892188 186.905 
Q 575.892188 186.905 575.892188 188.905 
L 575.892188 305.33 
Q 575.892188 307.33 577.892188 307.33 
z
" style="fill: #ffffff; opacity: 0.8; stroke: #cccccc; stroke-linejoin: miter"/>
    </g>
    <g id="patch_11">
     <path d="M 579.892188 198.503438 
L 599.892188 198.503438 
L 599.892188 191.503438 
L 579.892188 191.503438 
z
" style="fill: #1f77b4"/>
    </g>
    <g id="text_18">
     <!-- Android 11 (322) -->
     <g transform="translate(607.892188 198.503438) scale(0.1 -0.1)">
      <defs>
       <path id="DejaVuSans-28" d="M 1984 4856 
Q 1566 4138 1362 3434 
Q 1159 2731 1159 2009 
Q 1159 1288 1364 580 
Q 1569 -128 1984 -844 
L 1484 -844 
Q 1016 -109 783 600 
Q 550 1309 550 2009 
Q 550 2706 781 3412 
Q 1013 4119 1484 4856 
L 1984 4856 
z
" transform="scale(0.015625)"/>
       <path id="DejaVuSans-29" d="M 513 4856 
L 1013 4856 
Q 1481 4119 1714 3412 
Q 1947 2706 1947 2009 
Q 1947 1309 1714 600 
Q 1481 -109 1013 -844 
L 513 -844 
Q 928 -128 1133 580 
Q 1338 1288 1338 2009 
Q 1338 2731 1133 3434 
Q 928 4138 513 4856 
z
" transform="scale(0.015625)"/>
      </defs>
      <use xlink:href="#DejaVuSans-41"/>
      <use xlink:href="#DejaVuSans-6e" x="68.408203"/>
      <use xlink:href="#DejaVuSans-64" x="131.787109"/>
      <use xlink:href="#DejaVuSans-72" x="195.263672"/>
      <use xlink:href="#DejaVuSans-6f" x="234.126953"/>
      <use xlink:href="#DejaVuSans-69" x="295.308594"/>
      <use xlink:href="#DejaVuSans-64" x="323.091797"/>
      <use xlink:href="#DejaVuSans-20" x="386.568359"/>
      <use xlink:href="#DejaVuSans-31" x="418.355469"/>
      <use xlink:href="#DejaVuSans-31" x="481.978516"/>
      <use xlink:href="#DejaVuSans-20" x="545.601562"/>
      <use xlink:href="#DejaVuSans-28" x="577.388672"/>
      <use xlink:href="#DejaVuSans-33" x="616.402344"/>
      <use xlink:href="#DejaVuSans-32" x="680.025391"/>
      <use xlink:href="#DejaVuSans-32" x="743.648438"/>
      <use xlink:href="#DejaVuSans-29" x="807.271484"/>
     </g>
    </g>
    <g id="patch_12">
     <path d="M 579.892188 213.181563 
L 599.892188 213.181563 
L 599.892188 206.181563 
L 579.892188 206.181563 
z
" style="fill: #ff7f0e"/>
    </g>
    <g id="text_19">
     <!-- Android 10 (312) -->
     <g transform="translate(607.892188 213.181563) scale(0.1 -0.1)">
      <use xlink:href="#DejaVuSans-41"/>
      <use xlink:href="#DejaVuSans-6e" x="68.408203"/>
      <use xlink:href="#DejaVuSans-64" x="131.787109"/>
      <use xlink:href="#DejaVuSans-72" x="195.263672"/>
      <use xlink:href="#DejaVuSans-6f" x="234.126953"/>
      <use xlink:href="#DejaVuSans-69" x="295.308594"/>
      <use xlink:href="#DejaVuSans-64" x="323.091797"/>
      <use xlink:href="#DejaVuSans-20" x="386.568359"/>
      <use xlink:href="#DejaVuSans-31" x="418.355469"/>
      <use xlink:href="#DejaVuSans-30" x="481.978516"/>
      <use xlink:href="#DejaVuSans-20" x="545.601562"/>
      <use xlink:href="#DejaVuSans-28" x="577.388672"/>
      <use xlink:href="#DejaVuSans-33" x="616.402344"/>
      <use xlink:href="#DejaVuSans-31" x="680.025391"/>
      <use xlink:href="#DejaVuSans-32" x="743.648438"/>
      <use xlink:href="#DejaVuSans-29" x="807.271484"/>
     </g>
    </g>
    <g id="patch_13">
     <path d="M 579.892188 227.859688 
L 599.892188 227.859688 
L 599.892188 220.859688 
L 579.892188 220.859688 
z
" style="fill: #98df8a"/>
    </g>
    <g id="text_20">
     <!-- Android 12 (233) -->
     <g transform="translate(607.892188 227.859688) scale(0.1 -0.1)">
      <use xlink:href="#DejaVuSans-41"/>
      <use xlink:href="#DejaVuSans-6e" x="68.408203"/>
      <use xlink:href="#DejaVuSans-64" x="131.787109"/>
      <use xlink:href="#DejaVuSans-72" x="195.263672"/>
      <use xlink:href="#DejaVuSans-6f" x="234.126953"/>
      <use xlink:href="#DejaVuSans-69" x="295.308594"/>
      <use xlink:href="#DejaVuSans-64" x="323.091797"/>
      <use xlink:href="#DejaVuSans-20" x="386.568359"/>
      <use xlink:href="#DejaVuSans-31" x="418.355469"/>
      <use xlink:href="#DejaVuSans-32" x="481.978516"/>
      <use xlink:href="#DejaVuSans-20" x="545.601562"/>
      <use xlink:href="#DejaVuSans-28" x="577.388672"/>
      <use xlink:href="#DejaVuSans-32" x="616.402344"/>
      <use xlink:href="#DejaVuSans-33" x="680.025391"/>
      <use xlink:href="#DejaVuSans-33" x="743.648438"/>
      <use xlink:href="#DejaVuSans-29" x="807.271484"/>
     </g>
    </g>
    <g id="patch_14">
     <path d="M 579.892188 242.537813 
L 599.892188 242.537813 
L 599.892188 235.537813 
L 579.892188 235.537813 
z
" style="fill: #9467bd"/>
    </g>
    <g id="text_21">
     <!-- Android 9.0 (207) -->
     <g transform="translate(607.892188 242.537813) scale(0.1 -0.1)">
      <use xlink:href="#DejaVuSans-41"/>
      <use xlink:href="#DejaVuSans-6e" x="68.408203"/>
      <use xlink:href="#DejaVuSans-64" x="131.787109"/>
      <use xlink:href="#DejaVuSans-72" x="195.263672"/>
      <use xlink:href="#DejaVuSans-6f" x="234.126953"/>
      <use xlink:href="#DejaVuSans-69" x="295.308594"/>
      <use xlink:href="#DejaVuSans-64" x="323.091797"/>
      <use xlink:href="#DejaVuSans-20" x="386.568359"/>
      <use xlink:href="#DejaVuSans-39" x="418.355469"/>
      <use xlink:href="#DejaVuSans-2e" x="481.978516"/>
      <use xlink:href="#DejaVuSans-30" x="513.765625"/>
      <use xlink:href="#DejaVuSans-20" x="577.388672"/>
      <use xlink:href="#DejaVuSans-28" x="609.175781"/>
      <use xlink:href="#DejaVuSans-32" x="648.189453"/>
      <use xlink:href="#DejaVuSans-30" x="711.8125"/>
      <use xlink:href="#DejaVuSans-37" x="775.435547"/>
      <use xlink:href="#DejaVuSans-29" x="839.058594"/>
     </g>
    </g>
    <g id="patch_15">
     <path d="M 579.892188 257.215937 
L 599.892188 257.215937 
L 599.892188 250.215937 
L 579.892188 250.215937 
z
" style="fill: #c49c94"/>
    </g>
    <g id="text_22">
     <!-- Android 13 (153) -->
     <g transform="translate(607.892188 257.215937) scale(0.1 -0.1)">
      <use xlink:href="#DejaVuSans-41"/>
      <use xlink:href="#DejaVuSans-6e" x="68.408203"/>
      <use xlink:href="#DejaVuSans-64" x="131.787109"/>
      <use xlink:href="#DejaVuSans-72" x="195.263672"/>
      <use xlink:href="#DejaVuSans-6f" x="234.126953"/>
      <use xlink:href="#DejaVuSans-69" x="295.308594"/>
      <use xlink:href="#DejaVuSans-64" x="323.091797"/>
      <use xlink:href="#DejaVuSans-20" x="386.568359"/>
      <use xlink:href="#DejaVuSans-31" x="418.355469"/>
      <use xlink:href="#DejaVuSans-33" x="481.978516"/>
      <use xlink:href="#DejaVuSans-20" x="545.601562"/>
      <use xlink:href="#DejaVuSans-28" x="577.388672"/>
      <use xlink:href="#DejaVuSans-31" x="616.402344"/>
      <use xlink:href="#DejaVuSans-35" x="680.025391"/>
      <use xlink:href="#DejaVuSans-33" x="743.648438"/>
      <use xlink:href="#DejaVuSans-29" x="807.271484"/>
     </g>
    </g>
    <g id="patch_16">
     <path d="M 579.892188 271.894063 
L 599.892188 271.894063 
L 599.892188 264.894063 
L 579.892188 264.894063 
z
" style="fill: #7f7f7f"/>
    </g>
    <g id="text_23">
     <!-- Android 8.1 (83) -->
     <g transform="translate(607.892188 271.894063) scale(0.1 -0.1)">
      <use xlink:href="#DejaVuSans-41"/>
      <use xlink:href="#DejaVuSans-6e" x="68.408203"/>
      <use xlink:href="#DejaVuSans-64" x="131.787109"/>
      <use xlink:href="#DejaVuSans-72" x="195.263672"/>
      <use xlink:href="#DejaVuSans-6f" x="234.126953"/>
      <use xlink:href="#DejaVuSans-69" x="295.308594"/>
      <use xlink:href="#DejaVuSans-64" x="323.091797"/>
      <use xlink:href="#DejaVuSans-20" x="386.568359"/>
      <use xlink:href="#DejaVuSans-38" x="418.355469"/>
      <use xlink:href="#DejaVuSans-2e" x="481.978516"/>
      <use xlink:href="#DejaVuSans-31" x="513.765625"/>
      <use xlink:href="#DejaVuSans-20" x="577.388672"/>
      <use xlink:href="#DejaVuSans-28" x="609.175781"/>
      <use xlink:href="#DejaVuSans-38" x="648.189453"/>
      <use xlink:href="#DejaVuSans-33" x="711.8125"/>
      <use xlink:href="#DejaVuSans-29" x="775.435547"/>
     </g>
    </g>
    <g id="patch_17">
     <path d="M 579.892188 286.572188 
L 599.892188 286.572188 
L 599.892188 279.572188 
L 579.892188 279.572188 
z
" style="fill: #dbdb8d"/>
    </g>
    <g id="text_24">
     <!-- Android 8.0 (55) -->
     <g transform="translate(607.892188 286.572188) scale(0.1 -0.1)">
      <use xlink:href="#DejaVuSans-41"/>
      <use xlink:href="#DejaVuSans-6e" x="68.408203"/>
      <use xlink:href="#DejaVuSans-64" x="131.787109"/>
      <use xlink:href="#DejaVuSans-72" x="195.263672"/>
      <use xlink:href="#DejaVuSans-6f" x="234.126953"/>
      <use xlink:href="#DejaVuSans-69" x="295.308594"/>
      <use xlink:href="#DejaVuSans-64" x="323.091797"/>
      <use xlink:href="#DejaVuSans-20" x="386.568359"/>
      <use xlink:href="#DejaVuSans-38" x="418.355469"/>
      <use xlink:href="#DejaVuSans-2e" x="481.978516"/>
      <use xlink:href="#DejaVuSans-30" x="513.765625"/>
      <use xlink:href="#DejaVuSans-20" x="577.388672"/>
      <use xlink:href="#DejaVuSans-28" x="609.175781"/>
      <use xlink:href="#DejaVuSans-35" x="648.189453"/>
      <use xlink:href="#DejaVuSans-35" x="711.8125"/>
      <use xlink:href="#DejaVuSans-29" x="775.435547"/>
     </g>
    </g>
    <g id="patch_18">
     <path d="M 579.892188 301.250313 
L 599.892188 301.250313 
L 599.892188 294.250313 
L 579.892188 294.250313 
z
" style="fill: #9edae5"/>
    </g>
    <g id="text_25">
     <!-- Other (135) -->
     <g transform="translate(607.892188 301.250313) scale(0.1 -0.1)">
      <use xlink:href="#DejaVuSans-4f"/>
      <use xlink:href="#DejaVuSans-74" x="78.710938"/>
      <use xlink:href="#DejaVuSans-68" x="117.919922"/>
      <use xlink:href="#DejaVuSans-65" x="181.298828"/>
      <use xlink:href="#DejaVuSans-72" x="242.822266"/>
      <use xlink:href="#DejaVuSans-20" x="283.935547"/>
      <use xlink:href="#DejaVuSans-28" x="315.722656"/>
      <use xlink:href="#DejaVuSans-31" x="354.736328"/>
      <use xlink:href="#DejaVuSans-33" x="418.359375"/>
      <use xlink:href="#DejaVuSans-35" x="481.982422"/>
      <use xlink:href="#DejaVuSans-29" x="545.605469"/>
     </g>
    </g>
   </g>
  </g>
 </g>
</svg>
