<?xml version="1.0" encoding="utf-8" standalone="no"?>
<!DOCTYPE svg PUBLIC "-//W3C//DTD SVG 1.1//EN"
  "http://www.w3.org/Graphics/SVG/1.1/DTD/svg11.dtd">
<svg xmlns:xlink="http://www.w3.org/1999/xlink" width="857.50375pt" height="496.391691pt" viewBox="0 0 857.50375 496.391691" xmlns="http://www.w3.org/2000/svg" version="1.1">
 <metadata>
  <rdf:RDF xmlns:dc="http://purl.org/dc/elements/1.1/" xmlns:cc="http://creativecommons.org/ns#" xmlns:rdf="http://www.w3.org/1999/02/22-rdf-syntax-ns#">
   <cc:Work>
    <dc:type rdf:resource="http://purl.org/dc/dcmitype/StillImage"/>
    <dc:date>2026-02-12T18:41:11.914153</dc:date>
    <dc:format>image/svg+xml</dc:format>
    <dc:creator>
     <cc:Agent>
      <dc:title>Matplotlib v3.10.1+dfsg1, https://matplotlib.org/</dc:title>
     </cc:Agent>
    </dc:creator>
   </cc:Work>
  </rdf:RDF>
 </metadata>
 <defs>
  <style type="text/css">*{stroke-linejoin: round; stroke-linecap: butt}</style>
 </defs>
 <g id="figure_1">
  <g id="patch_1">
   <path d="M 0 496.391691 
L 857.50375 496.391691 
L 857.50375 0 
L 0 0 
z
" style="fill: #ffffff"/>
  </g>
  <g id="axes_1">
   <g id="patch_2">
    <path d="M 55.26375 433.404999 
L 850.30375 433.404999 
L 850.30375 25.3575 
L 55.26375 25.3575 
z
" style="fill: #ffffff"/>
   </g>
   <g id="matplotlib.axis_1">
    <g id="xtick_1">
     <g id="line2d_1">
      <defs>
       <path id="md3c6828dde" d="M 0 0 
L 0 3.5 
" style="stroke: #000000; stroke-width: 0.8"/>
      </defs>
      <g>
       <use xlink:href="#md3c6828dde" x="112.052321" y="433.404999" style="stroke: #000000; stroke-width: 0.8"/>
      </g>
     </g>
     <g id="text_1">
      <!-- Android 11 -->
      <g transform="translate(61.724405 470.34997) rotate(-25) scale(0.1 -0.1)">
       <defs>
        <path id="DejaVuSans-41" d="M 2188 4044 
L 1331 1722 
L 3047 1722 
L 2188 4044 
z
M 1831 4666 
L 2547 4666 
L 4325 0 
L 3669 0 
L 3244 1197 
L 1141 1197 
L 716 0 
L 50 0 
L 1831 4666 
z
" transform="scale(0.015625)"/>
        <path id="DejaVuSans-6e" d="M 3513 2113 
L 3513 0 
L 2938 0 
L 2938 2094 
Q 2938 2591 2744 2837 
Q 2550 3084 2163 3084 
Q 1697 3084 1428 2787 
Q 1159 2491 1159 1978 
L 1159 0 
L 581 0 
L 581 3500 
L 1159 3500 
L 1159 2956 
Q 1366 3272 1645 3428 
Q 1925 3584 2291 3584 
Q 2894 3584 3203 3211 
Q 3513 2838 3513 2113 
z
" transform="scale(0.015625)"/>
        <path id="DejaVuSans-64" d="M 2906 2969 
L 2906 4863 
L 3481 4863 
L 3481 0 
L 2906 0 
L 2906 525 
Q 2725 213 2448 61 
Q 2172 -91 1784 -91 
Q 1150 -91 751 415 
Q 353 922 353 1747 
Q 353 2572 751 3078 
Q 1150 3584 1784 3584 
Q 2172 3584 2448 3432 
Q 2725 3281 2906 2969 
z
M 947 1747 
Q 947 1113 1208 752 
Q 1469 391 1925 391 
Q 2381 391 2643 752 
Q 2906 1113 2906 1747 
Q 2906 2381 2643 2742 
Q 2381 3103 1925 3103 
Q 1469 3103 1208 2742 
Q 947 2381 947 1747 
z
" transform="scale(0.015625)"/>
        <path id="DejaVuSans-72" d="M 2631 2963 
Q 2534 3019 2420 3045 
Q 2306 3072 2169 3072 
Q 1681 3072 1420 2755 
Q 1159 2438 1159 1844 
L 1159 0 
L 581 0 
L 581 3500 
L 1159 3500 
L 1159 2956 
Q 1341 3275 1631 3429 
Q 1922 3584 2338 3584 
Q 2397 3584 2469 3576 
Q 2541 3569 2628 3553 
L 2631 2963 
z
" transform="scale(0.015625)"/>
        <path id="DejaVuSans-6f" d="M 1959 3097 
Q 1497 3097 1228 2736 
Q 959 2375 959 1747 
Q 959 1119 1226 758 
Q 1494 397 1959 397 
Q 2419 397 2687 759 
Q 2956 1122 2956 1747 
Q 2956 2369 2687 2733 
Q 2419 3097 1959 3097 
z
M 1959 3584 
Q 2709 3584 3137 3096 
Q 3566 2609 3566 1747 
Q 3566 888 3137 398 
Q 2709 -91 1959 -91 
Q 1206 -91 779 398 
Q 353 888 353 1747 
Q 353 2609 779 3096 
Q 1206 3584 1959 3584 
z
" transform="scale(0.015625)"/>
        <path id="DejaVuSans-69" d="M 603 3500 
L 1178 3500 
L 1178 0 
L 603 0 
L 603 3500 
z
M 603 4863 
L 1178 4863 
L 1178 4134 
L 603 4134 
L 603 4863 
z
" transform="scale(0.015625)"/>
        <path id="DejaVuSans-20" transform="scale(0.015625)"/>
        <path id="DejaVuSans-31" d="M 794 531 
L 1825 531 
L 1825 4091 
L 703 3866 
L 703 4441 
L 1819 4666 
L 2450 4666 
L 2450 531 
L 3481 531 
L 3481 0 
L 794 0 
L 794 531 
z
" transform="scale(0.015625)"/>
       </defs>
       <use xlink:href="#DejaVuSans-41"/>
       <use xlink:href="#DejaVuSans-6e" transform="translate(68.408203 0)"/>
       <use xlink:href="#DejaVuSans-64" transform="translate(131.787109 0)"/>
       <use xlink:href="#DejaVuSans-72" transform="translate(195.263672 0)"/>
       <use xlink:href="#DejaVuSans-6f" transform="translate(234.126953 0)"/>
       <use xlink:href="#DejaVuSans-69" transform="translate(295.308594 0)"/>
       <use xlink:href="#DejaVuSans-64" transform="translate(323.091797 0)"/>
       <use xlink:href="#DejaVuSans-20" transform="translate(386.568359 0)"/>
       <use xlink:href="#DejaVuSans-31" transform="translate(418.355469 0)"/>
       <use xlink:href="#DejaVuSans-31" transform="translate(481.978516 0)"/>
      </g>
     </g>
    </g>
    <g id="xtick_2">
     <g id="line2d_2">
      <g>
       <use xlink:href="#md3c6828dde" x="225.629464" y="433.404999" style="stroke: #000000; stroke-width: 0.8"/>
      </g>
     </g>
     <g id="text_2">
      <!-- Android 10 -->
      <g transform="translate(175.301548 470.34997) rotate(-25) scale(0.1 -0.1)">
       <defs>
        <path id="DejaVuSans-30" d="M 2034 4250 
Q 1547 4250 1301 3770 
Q 1056 3291 1056 2328 
Q 1056 1369 1301 889 
Q 1547 409 2034 409 
Q 2525 409 2770 889 
Q 3016 1369 3016 2328 
Q 3016 3291 2770 3770 
Q 2525 4250 2034 4250 
z
M 2034 4750 
Q 2819 4750 3233 4129 
Q 3647 3509 3647 2328 
Q 3647 1150 3233 529 
Q 2819 -91 2034 -91 
Q 1250 -91 836 529 
Q 422 1150 422 2328 
Q 422 3509 836 4129 
Q 1250 4750 2034 4750 
z
" transform="scale(0.015625)"/>
       </defs>
       <use xlink:href="#DejaVuSans-41"/>
       <use xlink:href="#DejaVuSans-6e" transform="translate(68.408203 0)"/>
       <use xlink:href="#DejaVuSans-64" transform="translate(131.787109 0)"/>
       <use xlink:href="#DejaVuSans-72" transform="translate(195.263672 0)"/>
       <use xlink:href="#DejaVuSans-6f" transform="translate(234.126953 0)"/>
       <use xlink:href="#DejaVuSans-69" transform="translate(295.308594 0)"/>
       <use xlink:href="#DejaVuSans-64" transform="translate(323.091797 0)"/>
       <use xlink:href="#DejaVuSans-20" transform="translate(386.568359 0)"/>
       <use xlink:href="#DejaVuSans-31" transform="translate(418.355469 0)"/>
       <use xlink:href="#DejaVuSans-30" transform="translate(481.978516 0)"/>
      </g>
     </g>
    </g>
    <g id="xtick_3">
     <g id="line2d_3">
      <g>
       <use xlink:href="#md3c6828dde" x="339.206607" y="433.404999" style="stroke: #000000; stroke-width: 0.8"/>
      </g>
     </g>
     <g id="text_3">
      <!-- Android 12 -->
      <g transform="translate(288.878691 470.34997) rotate(-25) scale(0.1 -0.1)">
       <defs>
        <path id="DejaVuSans-32" d="M 1228 531 
L 3431 531 
L 3431 0 
L 469 0 
L 469 531 
Q 828 903 1448 1529 
Q 2069 2156 2228 2338 
Q 2531 2678 2651 2914 
Q 2772 3150 2772 3378 
Q 2772 3750 2511 3984 
Q 2250 4219 1831 4219 
Q 1534 4219 1204 4116 
Q 875 4013 500 3803 
L 500 4441 
Q 881 4594 1212 4672 
Q 1544 4750 1819 4750 
Q 2544 4750 2975 4387 
Q 3406 4025 3406 3419 
Q 3406 3131 3298 2873 
Q 3191 2616 2906 2266 
Q 2828 2175 2409 1742 
Q 1991 1309 1228 531 
z
" transform="scale(0.015625)"/>
       </defs>
       <use xlink:href="#DejaVuSans-41"/>
       <use xlink:href="#DejaVuSans-6e" transform="translate(68.408203 0)"/>
       <use xlink:href="#DejaVuSans-64" transform="translate(131.787109 0)"/>
       <use xlink:href="#DejaVuSans-72" transform="translate(195.263672 0)"/>
       <use xlink:href="#DejaVuSans-6f" transform="translate(234.126953 0)"/>
       <use xlink:href="#DejaVuSans-69" transform="translate(295.308594 0)"/>
       <use xlink:href="#DejaVuSans-64" transform="translate(323.091797 0)"/>
       <use xlink:href="#DejaVuSans-20" transform="translate(386.568359 0)"/>
       <use xlink:href="#DejaVuSans-31" transform="translate(418.355469 0)"/>
       <use xlink:href="#DejaVuSans-32" transform="translate(481.978516 0)"/>
      </g>
     </g>
    </g>
    <g id="xtick_4">
     <g id="line2d_4">
      <g>
       <use xlink:href="#md3c6828dde" x="452.78375" y="433.404999" style="stroke: #000000; stroke-width: 0.8"/>
      </g>
     </g>
     <g id="text_4">
      <!-- Android 9.0 -->
      <g transform="translate(399.575474 471.693104) rotate(-25) scale(0.1 -0.1)">
       <defs>
        <path id="DejaVuSans-39" d="M 703 97 
L 703 672 
Q 941 559 1184 500 
Q 1428 441 1663 441 
Q 2288 441 2617 861 
Q 2947 1281 2994 2138 
Q 2813 1869 2534 1725 
Q 2256 1581 1919 1581 
Q 1219 1581 811 2004 
Q 403 2428 403 3163 
Q 403 3881 828 4315 
Q 1253 4750 1959 4750 
Q 2769 4750 3195 4129 
Q 3622 3509 3622 2328 
Q 3622 1225 3098 567 
Q 2575 -91 1691 -91 
Q 1453 -91 1209 -44 
Q 966 3 703 97 
z
M 1959 2075 
Q 2384 2075 2632 2365 
Q 2881 2656 2881 3163 
Q 2881 3666 2632 3958 
Q 2384 4250 1959 4250 
Q 1534 4250 1286 3958 
Q 1038 3666 1038 3163 
Q 1038 2656 1286 2365 
Q 1534 2075 1959 2075 
z
" transform="scale(0.015625)"/>
        <path id="DejaVuSans-2e" d="M 684 794 
L 1344 794 
L 1344 0 
L 684 0 
L 684 794 
z
" transform="scale(0.015625)"/>
       </defs>
       <use xlink:href="#DejaVuSans-41"/>
       <use xlink:href="#DejaVuSans-6e" transform="translate(68.408203 0)"/>
       <use xlink:href="#DejaVuSans-64" transform="translate(131.787109 0)"/>
       <use xlink:href="#DejaVuSans-72" transform="translate(195.263672 0)"/>
       <use xlink:href="#DejaVuSans-6f" transform="translate(234.126953 0)"/>
       <use xlink:href="#DejaVuSans-69" transform="translate(295.308594 0)"/>
       <use xlink:href="#DejaVuSans-64" transform="translate(323.091797 0)"/>
       <use xlink:href="#DejaVuSans-20" transform="translate(386.568359 0)"/>
       <use xlink:href="#DejaVuSans-39" transform="translate(418.355469 0)"/>
       <use xlink:href="#DejaVuSans-2e" transform="translate(481.978516 0)"/>
       <use xlink:href="#DejaVuSans-30" transform="translate(513.765625 0)"/>
      </g>
     </g>
    </g>
    <g id="xtick_5">
     <g id="line2d_5">
      <g>
       <use xlink:href="#md3c6828dde" x="566.360893" y="433.404999" style="stroke: #000000; stroke-width: 0.8"/>
      </g>
     </g>
     <g id="text_5">
      <!-- Android 13 -->
      <g transform="translate(516.032976 470.34997) rotate(-25) scale(0.1 -0.1)">
       <defs>
        <path id="DejaVuSans-33" d="M 2597 2516 
Q 3050 2419 3304 2112 
Q 3559 1806 3559 1356 
Q 3559 666 3084 287 
Q 2609 -91 1734 -91 
Q 1441 -91 1130 -33 
Q 819 25 488 141 
L 488 750 
Q 750 597 1062 519 
Q 1375 441 1716 441 
Q 2309 441 2620 675 
Q 2931 909 2931 1356 
Q 2931 1769 2642 2001 
Q 2353 2234 1838 2234 
L 1294 2234 
L 1294 2753 
L 1863 2753 
Q 2328 2753 2575 2939 
Q 2822 3125 2822 3475 
Q 2822 3834 2567 4026 
Q 2313 4219 1838 4219 
Q 1578 4219 1281 4162 
Q 984 4106 628 3988 
L 628 4550 
Q 988 4650 1302 4700 
Q 1616 4750 1894 4750 
Q 2613 4750 3031 4423 
Q 3450 4097 3450 3541 
Q 3450 3153 3228 2886 
Q 3006 2619 2597 2516 
z
" transform="scale(0.015625)"/>
       </defs>
       <use xlink:href="#DejaVuSans-41"/>
       <use xlink:href="#DejaVuSans-6e" transform="translate(68.408203 0)"/>
       <use xlink:href="#DejaVuSans-64" transform="translate(131.787109 0)"/>
       <use xlink:href="#DejaVuSans-72" transform="translate(195.263672 0)"/>
       <use xlink:href="#DejaVuSans-6f" transform="translate(234.126953 0)"/>
       <use xlink:href="#DejaVuSans-69" transform="translate(295.308594 0)"/>
       <use xlink:href="#DejaVuSans-64" transform="translate(323.091797 0)"/>
       <use xlink:href="#DejaVuSans-20" transform="translate(386.568359 0)"/>
       <use xlink:href="#DejaVuSans-31" transform="translate(418.355469 0)"/>
       <use xlink:href="#DejaVuSans-33" transform="translate(481.978516 0)"/>
      </g>
     </g>
    </g>
    <g id="xtick_6">
     <g id="line2d_6">
      <g>
       <use xlink:href="#md3c6828dde" x="679.938036" y="433.404999" style="stroke: #000000; stroke-width: 0.8"/>
      </g>
     </g>
     <g id="text_6">
      <!-- Android 8.1 -->
      <g transform="translate(626.72976 471.693104) rotate(-25) scale(0.1 -0.1)">
       <defs>
        <path id="DejaVuSans-38" d="M 2034 2216 
Q 1584 2216 1326 1975 
Q 1069 1734 1069 1313 
Q 1069 891 1326 650 
Q 1584 409 2034 409 
Q 2484 409 2743 651 
Q 3003 894 3003 1313 
Q 3003 1734 2745 1975 
Q 2488 2216 2034 2216 
z
M 1403 2484 
Q 997 2584 770 2862 
Q 544 3141 544 3541 
Q 544 4100 942 4425 
Q 1341 4750 2034 4750 
Q 2731 4750 3128 4425 
Q 3525 4100 3525 3541 
Q 3525 3141 3298 2862 
Q 3072 2584 2669 2484 
Q 3125 2378 3379 2068 
Q 3634 1759 3634 1313 
Q 3634 634 3220 271 
Q 2806 -91 2034 -91 
Q 1263 -91 848 271 
Q 434 634 434 1313 
Q 434 1759 690 2068 
Q 947 2378 1403 2484 
z
M 1172 3481 
Q 1172 3119 1398 2916 
Q 1625 2713 2034 2713 
Q 2441 2713 2670 2916 
Q 2900 3119 2900 3481 
Q 2900 3844 2670 4047 
Q 2441 4250 2034 4250 
Q 1625 4250 1398 4047 
Q 1172 3844 1172 3481 
z
" transform="scale(0.015625)"/>
       </defs>
       <use xlink:href="#DejaVuSans-41"/>
       <use xlink:href="#DejaVuSans-6e" transform="translate(68.408203 0)"/>
       <use xlink:href="#DejaVuSans-64" transform="translate(131.787109 0)"/>
       <use xlink:href="#DejaVuSans-72" transform="translate(195.263672 0)"/>
       <use xlink:href="#DejaVuSans-6f" transform="translate(234.126953 0)"/>
       <use xlink:href="#DejaVuSans-69" transform="translate(295.308594 0)"/>
       <use xlink:href="#DejaVuSans-64" transform="translate(323.091797 0)"/>
       <use xlink:href="#DejaVuSans-20" transform="translate(386.568359 0)"/>
       <use xlink:href="#DejaVuSans-38" transform="translate(418.355469 0)"/>
       <use xlink:href="#DejaVuSans-2e" transform="translate(481.978516 0)"/>
       <use xlink:href="#DejaVuSans-31" transform="translate(513.765625 0)"/>
      </g>
     </g>
    </g>
    <g id="xtick_7">
     <g id="line2d_7">
      <g>
       <use xlink:href="#md3c6828dde" x="793.515179" y="433.404999" style="stroke: #000000; stroke-width: 0.8"/>
      </g>
     </g>
     <g id="text_7">
      <!-- Android 8.0 -->
      <g transform="translate(740.306903 471.693104) rotate(-25) scale(0.1 -0.1)">
       <use xlink:href="#DejaVuSans-41"/>
       <use xlink:href="#DejaVuSans-6e" transform="translate(68.408203 0)"/>
       <use xlink:href="#DejaVuSans-64" transform="translate(131.787109 0)"/>
       <use xlink:href="#DejaVuSans-72" transform="translate(195.263672 0)"/>
       <use xlink:href="#DejaVuSans-6f" transform="translate(234.126953 0)"/>
       <use xlink:href="#DejaVuSans-69" transform="translate(295.308594 0)"/>
       <use xlink:href="#DejaVuSans-64" transform="translate(323.091797 0)"/>
       <use xlink:href="#DejaVuSans-20" transform="translate(386.568359 0)"/>
       <use xlink:href="#DejaVuSans-38" transform="translate(418.355469 0)"/>
       <use xlink:href="#DejaVuSans-2e" transform="translate(481.978516 0)"/>
       <use xlink:href="#DejaVuSans-30" transform="translate(513.765625 0)"/>
      </g>
     </g>
    </g>
    <g id="text_8">
     <!-- Operating System -->
     <g transform="translate(398.504375 486.696066) scale(0.12 -0.12)">
      <defs>
       <path id="DejaVuSans-4f" d="M 2522 4238 
Q 1834 4238 1429 3725 
Q 1025 3213 1025 2328 
Q 1025 1447 1429 934 
Q 1834 422 2522 422 
Q 3209 422 3611 934 
Q 4013 1447 4013 2328 
Q 4013 3213 3611 3725 
Q 3209 4238 2522 4238 
z
M 2522 4750 
Q 3503 4750 4090 4092 
Q 4678 3434 4678 2328 
Q 4678 1225 4090 567 
Q 3503 -91 2522 -91 
Q 1538 -91 948 565 
Q 359 1222 359 2328 
Q 359 3434 948 4092 
Q 1538 4750 2522 4750 
z
" transform="scale(0.015625)"/>
       <path id="DejaVuSans-70" d="M 1159 525 
L 1159 -1331 
L 581 -1331 
L 581 3500 
L 1159 3500 
L 1159 2969 
Q 1341 3281 1617 3432 
Q 1894 3584 2278 3584 
Q 2916 3584 3314 3078 
Q 3713 2572 3713 1747 
Q 3713 922 3314 415 
Q 2916 -91 2278 -91 
Q 1894 -91 1617 61 
Q 1341 213 1159 525 
z
M 3116 1747 
Q 3116 2381 2855 2742 
Q 2594 3103 2138 3103 
Q 1681 3103 1420 2742 
Q 1159 2381 1159 1747 
Q 1159 1113 1420 752 
Q 1681 391 2138 391 
Q 2594 391 2855 752 
Q 3116 1113 3116 1747 
z
" transform="scale(0.015625)"/>
       <path id="DejaVuSans-65" d="M 3597 1894 
L 3597 1613 
L 953 1613 
Q 991 1019 1311 708 
Q 1631 397 2203 397 
Q 2534 397 2845 478 
Q 3156 559 3463 722 
L 3463 178 
Q 3153 47 2828 -22 
Q 2503 -91 2169 -91 
Q 1331 -91 842 396 
Q 353 884 353 1716 
Q 353 2575 817 3079 
Q 1281 3584 2069 3584 
Q 2775 3584 3186 3129 
Q 3597 2675 3597 1894 
z
M 3022 2063 
Q 3016 2534 2758 2815 
Q 2500 3097 2075 3097 
Q 1594 3097 1305 2825 
Q 1016 2553 972 2059 
L 3022 2063 
z
" transform="scale(0.015625)"/>
       <path id="DejaVuSans-61" d="M 2194 1759 
Q 1497 1759 1228 1600 
Q 959 1441 959 1056 
Q 959 750 1161 570 
Q 1363 391 1709 391 
Q 2188 391 2477 730 
Q 2766 1069 2766 1631 
L 2766 1759 
L 2194 1759 
z
M 3341 1997 
L 3341 0 
L 2766 0 
L 2766 531 
Q 2569 213 2275 61 
Q 1981 -91 1556 -91 
Q 1019 -91 701 211 
Q 384 513 384 1019 
Q 384 1609 779 1909 
Q 1175 2209 1959 2209 
L 2766 2209 
L 2766 2266 
Q 2766 2663 2505 2880 
Q 2244 3097 1772 3097 
Q 1472 3097 1187 3025 
Q 903 2953 641 2809 
L 641 3341 
Q 956 3463 1253 3523 
Q 1550 3584 1831 3584 
Q 2591 3584 2966 3190 
Q 3341 2797 3341 1997 
z
" transform="scale(0.015625)"/>
       <path id="DejaVuSans-74" d="M 1172 4494 
L 1172 3500 
L 2356 3500 
L 2356 3053 
L 1172 3053 
L 1172 1153 
Q 1172 725 1289 603 
Q 1406 481 1766 481 
L 2356 481 
L 2356 0 
L 1766 0 
Q 1100 0 847 248 
Q 594 497 594 1153 
L 594 3053 
L 172 3053 
L 172 3500 
L 594 3500 
L 594 4494 
L 1172 4494 
z
" transform="scale(0.015625)"/>
       <path id="DejaVuSans-67" d="M 2906 1791 
Q 2906 2416 2648 2759 
Q 2391 3103 1925 3103 
Q 1463 3103 1205 2759 
Q 947 2416 947 1791 
Q 947 1169 1205 825 
Q 1463 481 1925 481 
Q 2391 481 2648 825 
Q 2906 1169 2906 1791 
z
M 3481 434 
Q 3481 -459 3084 -895 
Q 2688 -1331 1869 -1331 
Q 1566 -1331 1297 -1286 
Q 1028 -1241 775 -1147 
L 775 -588 
Q 1028 -725 1275 -790 
Q 1522 -856 1778 -856 
Q 2344 -856 2625 -561 
Q 2906 -266 2906 331 
L 2906 616 
Q 2728 306 2450 153 
Q 2172 0 1784 0 
Q 1141 0 747 490 
Q 353 981 353 1791 
Q 353 2603 747 3093 
Q 1141 3584 1784 3584 
Q 2172 3584 2450 3431 
Q 2728 3278 2906 2969 
L 2906 3500 
L 3481 3500 
L 3481 434 
z
" transform="scale(0.015625)"/>
       <path id="DejaVuSans-53" d="M 3425 4513 
L 3425 3897 
Q 3066 4069 2747 4153 
Q 2428 4238 2131 4238 
Q 1616 4238 1336 4038 
Q 1056 3838 1056 3469 
Q 1056 3159 1242 3001 
Q 1428 2844 1947 2747 
L 2328 2669 
Q 3034 2534 3370 2195 
Q 3706 1856 3706 1288 
Q 3706 609 3251 259 
Q 2797 -91 1919 -91 
Q 1588 -91 1214 -16 
Q 841 59 441 206 
L 441 856 
Q 825 641 1194 531 
Q 1563 422 1919 422 
Q 2459 422 2753 634 
Q 3047 847 3047 1241 
Q 3047 1584 2836 1778 
Q 2625 1972 2144 2069 
L 1759 2144 
Q 1053 2284 737 2584 
Q 422 2884 422 3419 
Q 422 4038 858 4394 
Q 1294 4750 2059 4750 
Q 2388 4750 2728 4690 
Q 3069 4631 3425 4513 
z
" transform="scale(0.015625)"/>
       <path id="DejaVuSans-79" d="M 2059 -325 
Q 1816 -950 1584 -1140 
Q 1353 -1331 966 -1331 
L 506 -1331 
L 506 -850 
L 844 -850 
Q 1081 -850 1212 -737 
Q 1344 -625 1503 -206 
L 1606 56 
L 191 3500 
L 800 3500 
L 1894 763 
L 2988 3500 
L 3597 3500 
L 2059 -325 
z
" transform="scale(0.015625)"/>
       <path id="DejaVuSans-73" d="M 2834 3397 
L 2834 2853 
Q 2591 2978 2328 3040 
Q 2066 3103 1784 3103 
Q 1356 3103 1142 2972 
Q 928 2841 928 2578 
Q 928 2378 1081 2264 
Q 1234 2150 1697 2047 
L 1894 2003 
Q 2506 1872 2764 1633 
Q 3022 1394 3022 966 
Q 3022 478 2636 193 
Q 2250 -91 1575 -91 
Q 1294 -91 989 -36 
Q 684 19 347 128 
L 347 722 
Q 666 556 975 473 
Q 1284 391 1588 391 
Q 1994 391 2212 530 
Q 2431 669 2431 922 
Q 2431 1156 2273 1281 
Q 2116 1406 1581 1522 
L 1381 1569 
Q 847 1681 609 1914 
Q 372 2147 372 2553 
Q 372 3047 722 3315 
Q 1072 3584 1716 3584 
Q 2034 3584 2315 3537 
Q 2597 3491 2834 3397 
z
" transform="scale(0.015625)"/>
       <path id="DejaVuSans-6d" d="M 3328 2828 
Q 3544 3216 3844 3400 
Q 4144 3584 4550 3584 
Q 5097 3584 5394 3201 
Q 5691 2819 5691 2113 
L 5691 0 
L 5113 0 
L 5113 2094 
Q 5113 2597 4934 2840 
Q 4756 3084 4391 3084 
Q 3944 3084 3684 2787 
Q 3425 2491 3425 1978 
L 3425 0 
L 2847 0 
L 2847 2094 
Q 2847 2600 2669 2842 
Q 2491 3084 2119 3084 
Q 1678 3084 1418 2786 
Q 1159 2488 1159 1978 
L 1159 0 
L 581 0 
L 581 3500 
L 1159 3500 
L 1159 2956 
Q 1356 3278 1631 3431 
Q 1906 3584 2284 3584 
Q 2666 3584 2933 3390 
Q 3200 3197 3328 2828 
z
" transform="scale(0.015625)"/>
      </defs>
      <use xlink:href="#DejaVuSans-4f"/>
      <use xlink:href="#DejaVuSans-70" transform="translate(78.710938 0)"/>
      <use xlink:href="#DejaVuSans-65" transform="translate(142.1875 0)"/>
      <use xlink:href="#DejaVuSans-72" transform="translate(203.710938 0)"/>
      <use xlink:href="#DejaVuSans-61" transform="translate(244.824219 0)"/>
      <use xlink:href="#DejaVuSans-74" transform="translate(306.103516 0)"/>
      <use xlink:href="#DejaVuSans-69" transform="translate(345.3125 0)"/>
      <use xlink:href="#DejaVuSans-6e" transform="translate(373.095703 0)"/>
      <use xlink:href="#DejaVuSans-67" transform="translate(436.474609 0)"/>
      <use xlink:href="#DejaVuSans-20" transform="translate(499.951172 0)"/>
      <use xlink:href="#DejaVuSans-53" transform="translate(531.738281 0)"/>
      <use xlink:href="#DejaVuSans-79" transform="translate(595.214844 0)"/>
      <use xlink:href="#DejaVuSans-73" transform="translate(654.394531 0)"/>
      <use xlink:href="#DejaVuSans-74" transform="translate(706.494141 0)"/>
      <use xlink:href="#DejaVuSans-65" transform="translate(745.703125 0)"/>
      <use xlink:href="#DejaVuSans-6d" transform="translate(807.226562 0)"/>
     </g>
    </g>
   </g>
   <g id="matplotlib.axis_2">
    <g id="ytick_1">
     <g id="line2d_8">
      <path d="M 55.26375 425.020461 
L 850.30375 425.020461 
" clip-path="url(#p5d1d415f86)" style="fill: none; stroke: #b0b0b0; stroke-opacity: 0.3; stroke-width: 0.8; stroke-linecap: square"/>
     </g>
     <g id="line2d_9">
      <defs>
       <path id="m4bc5519945" d="M 0 0 
L -3.5 0 
" style="stroke: #000000; stroke-width: 0.8"/>
      </defs>
      <g>
       <use xlink:href="#m4bc5519945" x="55.26375" y="425.020461" style="stroke: #000000; stroke-width: 0.8"/>
      </g>
     </g>
     <g id="text_9">
      <!-- 0 -->
      <g transform="translate(41.90125 428.81968) scale(0.1 -0.1)">
       <use xlink:href="#DejaVuSans-30"/>
      </g>
     </g>
    </g>
    <g id="ytick_2">
     <g id="line2d_10">
      <path d="M 55.26375 374.205081 
L 850.30375 374.205081 
" clip-path="url(#p5d1d415f86)" style="fill: none; stroke: #b0b0b0; stroke-opacity: 0.3; stroke-width: 0.8; stroke-linecap: square"/>
     </g>
     <g id="line2d_11">
      <g>
       <use xlink:href="#m4bc5519945" x="55.26375" y="374.205081" style="stroke: #000000; stroke-width: 0.8"/>
      </g>
     </g>
     <g id="text_10">
      <!-- 200 -->
      <g transform="translate(29.17625 378.0043) scale(0.1 -0.1)">
       <use xlink:href="#DejaVuSans-32"/>
       <use xlink:href="#DejaVuSans-30" transform="translate(63.623047 0)"/>
       <use xlink:href="#DejaVuSans-30" transform="translate(127.246094 0)"/>
      </g>
     </g>
    </g>
    <g id="ytick_3">
     <g id="line2d_12">
      <path d="M 55.26375 323.389702 
L 850.30375 323.389702 
" clip-path="url(#p5d1d415f86)" style="fill: none; stroke: #b0b0b0; stroke-opacity: 0.3; stroke-width: 0.8; stroke-linecap: square"/>
     </g>
     <g id="line2d_13">
      <g>
       <use xlink:href="#m4bc5519945" x="55.26375" y="323.389702" style="stroke: #000000; stroke-width: 0.8"/>
      </g>
     </g>
     <g id="text_11">
      <!-- 400 -->
      <g transform="translate(29.17625 327.18892) scale(0.1 -0.1)">
       <defs>
        <path id="DejaVuSans-34" d="M 2419 4116 
L 825 1625 
L 2419 1625 
L 2419 4116 
z
M 2253 4666 
L 3047 4666 
L 3047 1625 
L 3713 1625 
L 3713 1100 
L 3047 1100 
L 3047 0 
L 2419 0 
L 2419 1100 
L 313 1100 
L 313 1709 
L 2253 4666 
z
" transform="scale(0.015625)"/>
       </defs>
       <use xlink:href="#DejaVuSans-34"/>
       <use xlink:href="#DejaVuSans-30" transform="translate(63.623047 0)"/>
       <use xlink:href="#DejaVuSans-30" transform="translate(127.246094 0)"/>
      </g>
     </g>
    </g>
    <g id="ytick_4">
     <g id="line2d_14">
      <path d="M 55.26375 272.574322 
L 850.30375 272.574322 
" clip-path="url(#p5d1d415f86)" style="fill: none; stroke: #b0b0b0; stroke-opacity: 0.3; stroke-width: 0.8; stroke-linecap: square"/>
     </g>
     <g id="line2d_15">
      <g>
       <use xlink:href="#m4bc5519945" x="55.26375" y="272.574322" style="stroke: #000000; stroke-width: 0.8"/>
      </g>
     </g>
     <g id="text_12">
      <!-- 600 -->
      <g transform="translate(29.17625 276.373541) scale(0.1 -0.1)">
       <defs>
        <path id="DejaVuSans-36" d="M 2113 2584 
Q 1688 2584 1439 2293 
Q 1191 2003 1191 1497 
Q 1191 994 1439 701 
Q 1688 409 2113 409 
Q 2538 409 2786 701 
Q 3034 994 3034 1497 
Q 3034 2003 2786 2293 
Q 2538 2584 2113 2584 
z
M 3366 4563 
L 3366 3988 
Q 3128 4100 2886 4159 
Q 2644 4219 2406 4219 
Q 1781 4219 1451 3797 
Q 1122 3375 1075 2522 
Q 1259 2794 1537 2939 
Q 1816 3084 2150 3084 
Q 2853 3084 3261 2657 
Q 3669 2231 3669 1497 
Q 3669 778 3244 343 
Q 2819 -91 2113 -91 
Q 1303 -91 875 529 
Q 447 1150 447 2328 
Q 447 3434 972 4092 
Q 1497 4750 2381 4750 
Q 2619 4750 2861 4703 
Q 3103 4656 3366 4563 
z
" transform="scale(0.015625)"/>
       </defs>
       <use xlink:href="#DejaVuSans-36"/>
       <use xlink:href="#DejaVuSans-30" transform="translate(63.623047 0)"/>
       <use xlink:href="#DejaVuSans-30" transform="translate(127.246094 0)"/>
      </g>
     </g>
    </g>
    <g id="ytick_5">
     <g id="line2d_16">
      <path d="M 55.26375 221.758942 
L 850.30375 221.758942 
" clip-path="url(#p5d1d415f86)" style="fill: none; stroke: #b0b0b0; stroke-opacity: 0.3; stroke-width: 0.8; stroke-linecap: square"/>
     </g>
     <g id="line2d_17">
      <g>
       <use xlink:href="#m4bc5519945" x="55.26375" y="221.758942" style="stroke: #000000; stroke-width: 0.8"/>
      </g>
     </g>
     <g id="text_13">
      <!-- 800 -->
      <g transform="translate(29.17625 225.558161) scale(0.1 -0.1)">
       <use xlink:href="#DejaVuSans-38"/>
       <use xlink:href="#DejaVuSans-30" transform="translate(63.623047 0)"/>
       <use xlink:href="#DejaVuSans-30" transform="translate(127.246094 0)"/>
      </g>
     </g>
    </g>
    <g id="ytick_6">
     <g id="line2d_18">
      <path d="M 55.26375 170.943563 
L 850.30375 170.943563 
" clip-path="url(#p5d1d415f86)" style="fill: none; stroke: #b0b0b0; stroke-opacity: 0.3; stroke-width: 0.8; stroke-linecap: square"/>
     </g>
     <g id="line2d_19">
      <g>
       <use xlink:href="#m4bc5519945" x="55.26375" y="170.943563" style="stroke: #000000; stroke-width: 0.8"/>
      </g>
     </g>
     <g id="text_14">
      <!-- 1000 -->
      <g transform="translate(22.81375 174.742781) scale(0.1 -0.1)">
       <use xlink:href="#DejaVuSans-31"/>
       <use xlink:href="#DejaVuSans-30" transform="translate(63.623047 0)"/>
       <use xlink:href="#DejaVuSans-30" transform="translate(127.246094 0)"/>
       <use xlink:href="#DejaVuSans-30" transform="translate(190.869141 0)"/>
      </g>
     </g>
    </g>
    <g id="ytick_7">
     <g id="line2d_20">
      <path d="M 55.26375 120.128183 
L 850.30375 120.128183 
" clip-path="url(#p5d1d415f86)" style="fill: none; stroke: #b0b0b0; stroke-opacity: 0.3; stroke-width: 0.8; stroke-linecap: square"/>
     </g>
     <g id="line2d_21">
      <g>
       <use xlink:href="#m4bc5519945" x="55.26375" y="120.128183" style="stroke: #000000; stroke-width: 0.8"/>
      </g>
     </g>
     <g id="text_15">
      <!-- 1200 -->
      <g transform="translate(22.81375 123.927402) scale(0.1 -0.1)">
       <use xlink:href="#DejaVuSans-31"/>
       <use xlink:href="#DejaVuSans-32" transform="translate(63.623047 0)"/>
       <use xlink:href="#DejaVuSans-30" transform="translate(127.246094 0)"/>
       <use xlink:href="#DejaVuSans-30" transform="translate(190.869141 0)"/>
      </g>
     </g>
    </g>
    <g id="ytick_8">
     <g id="line2d_22">
      <path d="M 55.26375 69.312803 
L 850.30375 69.312803 
" clip-path="url(#p5d1d415f86)" style="fill: none; stroke: #b0b0b0; stroke-opacity: 0.3; stroke-width: 0.8; stroke-linecap: square"/>
     </g>
     <g id="line2d_23">
      <g>
       <use xlink:href="#m4bc5519945" x="55.26375" y="69.312803" style="stroke: #000000; stroke-width: 0.8"/>
      </g>
     </g>
     <g id="text_16">
      <!-- 1400 -->
      <g transform="translate(22.81375 73.112022) scale(0.1 -0.1)">
       <use xlink:href="#DejaVuSans-31"/>
       <use xlink:href="#DejaVuSans-34" transform="translate(63.623047 0)"/>
       <use xlink:href="#DejaVuSans-30" transform="translate(127.246094 0)"/>
       <use xlink:href="#DejaVuSans-30" transform="translate(190.869141 0)"/>
      </g>
     </g>
    </g>
    <g id="text_17">
     <!-- Price (USD) -->
     <g transform="translate(16.318125 263.427499) rotate(-90) scale(0.12 -0.12)">
      <defs>
       <path id="DejaVuSans-50" d="M 1259 4147 
L 1259 2394 
L 2053 2394 
Q 2494 2394 2734 2622 
Q 2975 2850 2975 3272 
Q 2975 3691 2734 3919 
Q 2494 4147 2053 4147 
L 1259 4147 
z
M 628 4666 
L 2053 4666 
Q 2838 4666 3239 4311 
Q 3641 3956 3641 3272 
Q 3641 2581 3239 2228 
Q 2838 1875 2053 1875 
L 1259 1875 
L 1259 0 
L 628 0 
L 628 4666 
z
" transform="scale(0.015625)"/>
       <path id="DejaVuSans-63" d="M 3122 3366 
L 3122 2828 
Q 2878 2963 2633 3030 
Q 2388 3097 2138 3097 
Q 1578 3097 1268 2742 
Q 959 2388 959 1747 
Q 959 1106 1268 751 
Q 1578 397 2138 397 
Q 2388 397 2633 464 
Q 2878 531 3122 666 
L 3122 134 
Q 2881 22 2623 -34 
Q 2366 -91 2075 -91 
Q 1284 -91 818 406 
Q 353 903 353 1747 
Q 353 2603 823 3093 
Q 1294 3584 2113 3584 
Q 2378 3584 2631 3529 
Q 2884 3475 3122 3366 
z
" transform="scale(0.015625)"/>
       <path id="DejaVuSans-28" d="M 1984 4856 
Q 1566 4138 1362 3434 
Q 1159 2731 1159 2009 
Q 1159 1288 1364 580 
Q 1569 -128 1984 -844 
L 1484 -844 
Q 1016 -109 783 600 
Q 550 1309 550 2009 
Q 550 2706 781 3412 
Q 1013 4119 1484 4856 
L 1984 4856 
z
" transform="scale(0.015625)"/>
       <path id="DejaVuSans-55" d="M 556 4666 
L 1191 4666 
L 1191 1831 
Q 1191 1081 1462 751 
Q 1734 422 2344 422 
Q 2950 422 3222 751 
Q 3494 1081 3494 1831 
L 3494 4666 
L 4128 4666 
L 4128 1753 
Q 4128 841 3676 375 
Q 3225 -91 2344 -91 
Q 1459 -91 1007 375 
Q 556 841 556 1753 
L 556 4666 
z
" transform="scale(0.015625)"/>
       <path id="DejaVuSans-44" d="M 1259 4147 
L 1259 519 
L 2022 519 
Q 2988 519 3436 956 
Q 3884 1394 3884 2338 
Q 3884 3275 3436 3711 
Q 2988 4147 2022 4147 
L 1259 4147 
z
M 628 4666 
L 1925 4666 
Q 3281 4666 3915 4102 
Q 4550 3538 4550 2338 
Q 4550 1131 3912 565 
Q 3275 0 1925 0 
L 628 0 
L 628 4666 
z
" transform="scale(0.015625)"/>
       <path id="DejaVuSans-29" d="M 513 4856 
L 1013 4856 
Q 1481 4119 1714 3412 
Q 1947 2706 1947 2009 
Q 1947 1309 1714 600 
Q 1481 -109 1013 -844 
L 513 -844 
Q 928 -128 1133 580 
Q 1338 1288 1338 2009 
Q 1338 2731 1133 3434 
Q 928 4138 513 4856 
z
" transform="scale(0.015625)"/>
      </defs>
      <use xlink:href="#DejaVuSans-50"/>
      <use xlink:href="#DejaVuSans-72" transform="translate(58.552734 0)"/>
      <use xlink:href="#DejaVuSans-69" transform="translate(99.666016 0)"/>
      <use xlink:href="#DejaVuSans-63" transform="translate(127.449219 0)"/>
      <use xlink:href="#DejaVuSans-65" transform="translate(182.429688 0)"/>
      <use xlink:href="#DejaVuSans-20" transform="translate(243.953125 0)"/>
      <use xlink:href="#DejaVuSans-28" transform="translate(275.740234 0)"/>
      <use xlink:href="#DejaVuSans-55" transform="translate(314.753906 0)"/>
      <use xlink:href="#DejaVuSans-53" transform="translate(387.947266 0)"/>
      <use xlink:href="#DejaVuSans-44" transform="translate(451.423828 0)"/>
      <use xlink:href="#DejaVuSans-29" transform="translate(528.425781 0)"/>
     </g>
    </g>
   </g>
   <g id="patch_3">
    <path d="M 83.658036 376.74585 
L 140.446607 376.74585 
L 140.446607 328.47124 
L 83.658036 328.47124 
L 83.658036 376.74585 
z
" clip-path="url(#p5d1d415f86)" style="fill: #8dd3c7; stroke: #000000; stroke-linejoin: miter"/>
   </g>
   <g id="line2d_24">
    <path d="M 112.052321 376.74585 
L 112.052321 403.27656 
" clip-path="url(#p5d1d415f86)" style="fill: none; stroke: #000000; stroke-linecap: square"/>
   </g>
   <g id="line2d_25">
    <path d="M 112.052321 328.47124 
L 112.052321 257.329708 
" clip-path="url(#p5d1d415f86)" style="fill: none; stroke: #000000; stroke-linecap: square"/>
   </g>
   <g id="line2d_26">
    <path d="M 97.855179 403.27656 
L 126.249464 403.27656 
" clip-path="url(#p5d1d415f86)" style="fill: none; stroke: #000000; stroke-linecap: square"/>
   </g>
   <g id="line2d_27">
    <path d="M 97.855179 257.329708 
L 126.249464 257.329708 
" clip-path="url(#p5d1d415f86)" style="fill: none; stroke: #000000; stroke-linecap: square"/>
   </g>
   <g id="line2d_28">
    <defs>
     <path id="mad4f706f8b" d="M 0 3 
C 0.795609 3 1.55874 2.683901 2.12132 2.12132 
C 2.683901 1.55874 3 0.795609 3 0 
C 3 -0.795609 2.683901 -1.55874 2.12132 -2.12132 
C 1.55874 -2.683901 0.795609 -3 0 -3 
C -0.795609 -3 -1.55874 -2.683901 -2.12132 -2.12132 
C -2.683901 -1.55874 -3 -0.795609 -3 0 
C -3 0.795609 -2.683901 1.55874 -2.12132 2.12132 
C -1.55874 2.683901 -0.795609 3 0 3 
z
" style="stroke: #000000"/>
    </defs>
    <g clip-path="url(#p5d1d415f86)">
     <use xlink:href="#mad4f706f8b" x="112.052321" y="223.682305" style="fill-opacity: 0; stroke: #000000"/>
     <use xlink:href="#mad4f706f8b" x="112.052321" y="255.576578" style="fill-opacity: 0; stroke: #000000"/>
     <use xlink:href="#mad4f706f8b" x="112.052321" y="188.728946" style="fill-opacity: 0; stroke: #000000"/>
     <use xlink:href="#mad4f706f8b" x="112.052321" y="43.905114" style="fill-opacity: 0; stroke: #000000"/>
     <use xlink:href="#mad4f706f8b" x="112.052321" y="201.432791" style="fill-opacity: 0; stroke: #000000"/>
     <use xlink:href="#mad4f706f8b" x="112.052321" y="221.758942" style="fill-opacity: 0; stroke: #000000"/>
     <use xlink:href="#mad4f706f8b" x="112.052321" y="235.479095" style="fill-opacity: 0; stroke: #000000"/>
     <use xlink:href="#mad4f706f8b" x="112.052321" y="212.866251" style="fill-opacity: 0; stroke: #000000"/>
     <use xlink:href="#mad4f706f8b" x="112.052321" y="153.15818" style="fill-opacity: 0; stroke: #000000"/>
     <use xlink:href="#mad4f706f8b" x="112.052321" y="254.788939" style="fill-opacity: 0; stroke: #000000"/>
     <use xlink:href="#mad4f706f8b" x="112.052321" y="221.758942" style="fill-opacity: 0; stroke: #000000"/>
     <use xlink:href="#mad4f706f8b" x="112.052321" y="224.553788" style="fill-opacity: 0; stroke: #000000"/>
     <use xlink:href="#mad4f706f8b" x="112.052321" y="242.085094" style="fill-opacity: 0; stroke: #000000"/>
     <use xlink:href="#mad4f706f8b" x="112.052321" y="160.780487" style="fill-opacity: 0; stroke: #000000"/>
     <use xlink:href="#mad4f706f8b" x="112.052321" y="171.451717" style="fill-opacity: 0; stroke: #000000"/>
     <use xlink:href="#mad4f706f8b" x="112.052321" y="247.169173" style="fill-opacity: 0; stroke: #000000"/>
     <use xlink:href="#mad4f706f8b" x="112.052321" y="94.720493" style="fill-opacity: 0; stroke: #000000"/>
     <use xlink:href="#mad4f706f8b" x="112.052321" y="221.758942" style="fill-opacity: 0; stroke: #000000"/>
    </g>
   </g>
   <g id="patch_4">
    <path d="M 197.235179 384.368157 
L 254.02375 384.368157 
L 254.02375 325.930471 
L 197.235179 325.930471 
L 197.235179 384.368157 
z
" clip-path="url(#p5d1d415f86)" style="fill: #bebada; stroke: #000000; stroke-linejoin: miter"/>
   </g>
   <g id="line2d_29">
    <path d="M 225.629464 384.368157 
L 225.629464 406.221311 
" clip-path="url(#p5d1d415f86)" style="fill: none; stroke: #000000; stroke-linecap: square"/>
   </g>
   <g id="line2d_30">
    <path d="M 225.629464 325.930471 
L 225.629464 247.166632 
" clip-path="url(#p5d1d415f86)" style="fill: none; stroke: #000000; stroke-linecap: square"/>
   </g>
   <g id="line2d_31">
    <path d="M 211.432321 406.221311 
L 239.826607 406.221311 
" clip-path="url(#p5d1d415f86)" style="fill: none; stroke: #000000; stroke-linecap: square"/>
   </g>
   <g id="line2d_32">
    <path d="M 211.432321 247.166632 
L 239.826607 247.166632 
" clip-path="url(#p5d1d415f86)" style="fill: none; stroke: #000000; stroke-linecap: square"/>
   </g>
   <g id="line2d_33">
    <g clip-path="url(#p5d1d415f86)">
     <use xlink:href="#mad4f706f8b" x="225.629464" y="163.321256" style="fill-opacity: 0; stroke: #000000"/>
     <use xlink:href="#mad4f706f8b" x="225.629464" y="221.758942" style="fill-opacity: 0; stroke: #000000"/>
     <use xlink:href="#mad4f706f8b" x="225.629464" y="165.862025" style="fill-opacity: 0; stroke: #000000"/>
     <use xlink:href="#mad4f706f8b" x="225.629464" y="229.381249" style="fill-opacity: 0; stroke: #000000"/>
     <use xlink:href="#mad4f706f8b" x="225.629464" y="201.432791" style="fill-opacity: 0; stroke: #000000"/>
     <use xlink:href="#mad4f706f8b" x="225.629464" y="188.728946" style="fill-opacity: 0; stroke: #000000"/>
     <use xlink:href="#mad4f706f8b" x="225.629464" y="170.943563" style="fill-opacity: 0; stroke: #000000"/>
     <use xlink:href="#mad4f706f8b" x="225.629464" y="186.188177" style="fill-opacity: 0; stroke: #000000"/>
     <use xlink:href="#mad4f706f8b" x="225.629464" y="237.003556" style="fill-opacity: 0; stroke: #000000"/>
     <use xlink:href="#mad4f706f8b" x="225.629464" y="202.449098" style="fill-opacity: 0; stroke: #000000"/>
     <use xlink:href="#mad4f706f8b" x="225.629464" y="127.75049" style="fill-opacity: 0; stroke: #000000"/>
     <use xlink:href="#mad4f706f8b" x="225.629464" y="203.97356" style="fill-opacity: 0; stroke: #000000"/>
     <use xlink:href="#mad4f706f8b" x="225.629464" y="216.677404" style="fill-opacity: 0; stroke: #000000"/>
     <use xlink:href="#mad4f706f8b" x="225.629464" y="82.270725" style="fill-opacity: 0; stroke: #000000"/>
     <use xlink:href="#mad4f706f8b" x="225.629464" y="209.055097" style="fill-opacity: 0; stroke: #000000"/>
     <use xlink:href="#mad4f706f8b" x="225.629464" y="221.758942" style="fill-opacity: 0; stroke: #000000"/>
     <use xlink:href="#mad4f706f8b" x="225.629464" y="107.424338" style="fill-opacity: 0; stroke: #000000"/>
     <use xlink:href="#mad4f706f8b" x="225.629464" y="209.055097" style="fill-opacity: 0; stroke: #000000"/>
     <use xlink:href="#mad4f706f8b" x="225.629464" y="181.106639" style="fill-opacity: 0; stroke: #000000"/>
     <use xlink:href="#mad4f706f8b" x="225.629464" y="170.943563" style="fill-opacity: 0; stroke: #000000"/>
     <use xlink:href="#mad4f706f8b" x="225.629464" y="209.055097" style="fill-opacity: 0; stroke: #000000"/>
     <use xlink:href="#mad4f706f8b" x="225.629464" y="224.299711" style="fill-opacity: 0; stroke: #000000"/>
     <use xlink:href="#mad4f706f8b" x="225.629464" y="69.312803" style="fill-opacity: 0; stroke: #000000"/>
     <use xlink:href="#mad4f706f8b" x="225.629464" y="69.312803" style="fill-opacity: 0; stroke: #000000"/>
     <use xlink:href="#mad4f706f8b" x="225.629464" y="94.720493" style="fill-opacity: 0; stroke: #000000"/>
     <use xlink:href="#mad4f706f8b" x="225.629464" y="153.15818" style="fill-opacity: 0; stroke: #000000"/>
    </g>
   </g>
   <g id="patch_5">
    <path d="M 310.812321 377.254004 
L 367.600893 377.254004 
L 367.600893 318.308164 
L 310.812321 318.308164 
L 310.812321 377.254004 
z
" clip-path="url(#p5d1d415f86)" style="fill: #80b1d3; stroke: #000000; stroke-linejoin: miter"/>
   </g>
   <g id="line2d_34">
    <path d="M 339.206607 377.254004 
L 339.206607 404.976335 
" clip-path="url(#p5d1d415f86)" style="fill: none; stroke: #000000; stroke-linecap: square"/>
   </g>
   <g id="line2d_35">
    <path d="M 339.206607 318.308164 
L 339.206607 234.488195 
" clip-path="url(#p5d1d415f86)" style="fill: none; stroke: #000000; stroke-linecap: square"/>
   </g>
   <g id="line2d_36">
    <path d="M 325.009464 404.976335 
L 353.40375 404.976335 
" clip-path="url(#p5d1d415f86)" style="fill: none; stroke: #000000; stroke-linecap: square"/>
   </g>
   <g id="line2d_37">
    <path d="M 325.009464 234.488195 
L 353.40375 234.488195 
" clip-path="url(#p5d1d415f86)" style="fill: none; stroke: #000000; stroke-linecap: square"/>
   </g>
   <g id="line2d_38">
    <g clip-path="url(#p5d1d415f86)">
     <use xlink:href="#mad4f706f8b" x="339.206607" y="69.312803" style="fill-opacity: 0; stroke: #000000"/>
     <use xlink:href="#mad4f706f8b" x="339.206607" y="215.40702" style="fill-opacity: 0; stroke: #000000"/>
     <use xlink:href="#mad4f706f8b" x="339.206607" y="196.351253" style="fill-opacity: 0; stroke: #000000"/>
     <use xlink:href="#mad4f706f8b" x="339.206607" y="182.377023" style="fill-opacity: 0; stroke: #000000"/>
     <use xlink:href="#mad4f706f8b" x="339.206607" y="132.832028" style="fill-opacity: 0; stroke: #000000"/>
     <use xlink:href="#mad4f706f8b" x="339.206607" y="211.60857" style="fill-opacity: 0; stroke: #000000"/>
     <use xlink:href="#mad4f706f8b" x="339.206607" y="209.055097" style="fill-opacity: 0; stroke: #000000"/>
     <use xlink:href="#mad4f706f8b" x="339.206607" y="198.894562" style="fill-opacity: 0; stroke: #000000"/>
     <use xlink:href="#mad4f706f8b" x="339.206607" y="203.97356" style="fill-opacity: 0; stroke: #000000"/>
     <use xlink:href="#mad4f706f8b" x="339.206607" y="171.19764" style="fill-opacity: 0; stroke: #000000"/>
     <use xlink:href="#mad4f706f8b" x="339.206607" y="94.720493" style="fill-opacity: 0; stroke: #000000"/>
     <use xlink:href="#mad4f706f8b" x="339.206607" y="43.905114" style="fill-opacity: 0; stroke: #000000"/>
     <use xlink:href="#mad4f706f8b" x="339.206607" y="166.116102" style="fill-opacity: 0; stroke: #000000"/>
     <use xlink:href="#mad4f706f8b" x="339.206607" y="150.619952" style="fill-opacity: 0; stroke: #000000"/>
     <use xlink:href="#mad4f706f8b" x="339.206607" y="216.677404" style="fill-opacity: 0; stroke: #000000"/>
    </g>
   </g>
   <g id="patch_6">
    <path d="M 424.389464 379.286619 
L 481.178036 379.286619 
L 481.178036 323.389702 
L 424.389464 323.389702 
L 424.389464 379.286619 
z
" clip-path="url(#p5d1d415f86)" style="fill: #b3de69; stroke: #000000; stroke-linejoin: miter"/>
   </g>
   <g id="line2d_39">
    <path d="M 452.78375 379.286619 
L 452.78375 414.857385 
" clip-path="url(#p5d1d415f86)" style="fill: none; stroke: #000000; stroke-linecap: square"/>
   </g>
   <g id="line2d_40">
    <path d="M 452.78375 323.389702 
L 452.78375 239.544325 
" clip-path="url(#p5d1d415f86)" style="fill: none; stroke: #000000; stroke-linecap: square"/>
   </g>
   <g id="line2d_41">
    <path d="M 438.586607 414.857385 
L 466.980893 414.857385 
" clip-path="url(#p5d1d415f86)" style="fill: none; stroke: #000000; stroke-linecap: square"/>
   </g>
   <g id="line2d_42">
    <path d="M 438.586607 239.544325 
L 466.980893 239.544325 
" clip-path="url(#p5d1d415f86)" style="fill: none; stroke: #000000; stroke-linecap: square"/>
   </g>
   <g id="line2d_43">
    <g clip-path="url(#p5d1d415f86)">
     <use xlink:href="#mad4f706f8b" x="452.78375" y="120.128183" style="fill-opacity: 0; stroke: #000000"/>
     <use xlink:href="#mad4f706f8b" x="452.78375" y="221.758942" style="fill-opacity: 0; stroke: #000000"/>
     <use xlink:href="#mad4f706f8b" x="452.78375" y="231.922018" style="fill-opacity: 0; stroke: #000000"/>
     <use xlink:href="#mad4f706f8b" x="452.78375" y="145.535873" style="fill-opacity: 0; stroke: #000000"/>
     <use xlink:href="#mad4f706f8b" x="452.78375" y="201.432791" style="fill-opacity: 0; stroke: #000000"/>
     <use xlink:href="#mad4f706f8b" x="452.78375" y="165.862025" style="fill-opacity: 0; stroke: #000000"/>
     <use xlink:href="#mad4f706f8b" x="452.78375" y="69.312803" style="fill-opacity: 0; stroke: #000000"/>
     <use xlink:href="#mad4f706f8b" x="452.78375" y="97.261262" style="fill-opacity: 0; stroke: #000000"/>
     <use xlink:href="#mad4f706f8b" x="452.78375" y="59.149727" style="fill-opacity: 0; stroke: #000000"/>
     <use xlink:href="#mad4f706f8b" x="452.78375" y="145.535873" style="fill-opacity: 0; stroke: #000000"/>
    </g>
   </g>
   <g id="patch_7">
    <path d="M 537.966607 374.459158 
L 594.755179 374.459158 
L 594.755179 307.382857 
L 537.966607 307.382857 
L 537.966607 374.459158 
z
" clip-path="url(#p5d1d415f86)" style="fill: #d9d9d9; stroke: #000000; stroke-linejoin: miter"/>
   </g>
   <g id="line2d_44">
    <path d="M 566.360893 374.459158 
L 566.360893 404.019481 
" clip-path="url(#p5d1d415f86)" style="fill: none; stroke: #000000; stroke-linecap: square"/>
   </g>
   <g id="line2d_45">
    <path d="M 566.360893 307.382857 
L 566.360893 221.758942 
" clip-path="url(#p5d1d415f86)" style="fill: none; stroke: #000000; stroke-linecap: square"/>
   </g>
   <g id="line2d_46">
    <path d="M 552.16375 404.019481 
L 580.558036 404.019481 
" clip-path="url(#p5d1d415f86)" style="fill: none; stroke: #000000; stroke-linecap: square"/>
   </g>
   <g id="line2d_47">
    <path d="M 552.16375 221.758942 
L 580.558036 221.758942 
" clip-path="url(#p5d1d415f86)" style="fill: none; stroke: #000000; stroke-linecap: square"/>
   </g>
   <g id="line2d_48">
    <g clip-path="url(#p5d1d415f86)">
     <use xlink:href="#mad4f706f8b" x="566.360893" y="56.608958" style="fill-opacity: 0; stroke: #000000"/>
     <use xlink:href="#mad4f706f8b" x="566.360893" y="74.396882" style="fill-opacity: 0; stroke: #000000"/>
     <use xlink:href="#mad4f706f8b" x="566.360893" y="163.321256" style="fill-opacity: 0; stroke: #000000"/>
     <use xlink:href="#mad4f706f8b" x="566.360893" y="188.983023" style="fill-opacity: 0; stroke: #000000"/>
     <use xlink:href="#mad4f706f8b" x="566.360893" y="122.193828" style="fill-opacity: 0; stroke: #000000"/>
     <use xlink:href="#mad4f706f8b" x="566.360893" y="145.535873" style="fill-opacity: 0; stroke: #000000"/>
     <use xlink:href="#mad4f706f8b" x="566.360893" y="138.744397" style="fill-opacity: 0; stroke: #000000"/>
     <use xlink:href="#mad4f706f8b" x="566.360893" y="161.034564" style="fill-opacity: 0; stroke: #000000"/>
     <use xlink:href="#mad4f706f8b" x="566.360893" y="196.351253" style="fill-opacity: 0; stroke: #000000"/>
     <use xlink:href="#mad4f706f8b" x="566.360893" y="164.083486" style="fill-opacity: 0; stroke: #000000"/>
     <use xlink:href="#mad4f706f8b" x="566.360893" y="196.351253" style="fill-opacity: 0; stroke: #000000"/>
     <use xlink:href="#mad4f706f8b" x="566.360893" y="196.605329" style="fill-opacity: 0; stroke: #000000"/>
     <use xlink:href="#mad4f706f8b" x="566.360893" y="87.098186" style="fill-opacity: 0; stroke: #000000"/>
     <use xlink:href="#mad4f706f8b" x="566.360893" y="150.871488" style="fill-opacity: 0; stroke: #000000"/>
     <use xlink:href="#mad4f706f8b" x="566.360893" y="196.605329" style="fill-opacity: 0; stroke: #000000"/>
     <use xlink:href="#mad4f706f8b" x="566.360893" y="137.913566" style="fill-opacity: 0; stroke: #000000"/>
     <use xlink:href="#mad4f706f8b" x="566.360893" y="196.605329" style="fill-opacity: 0; stroke: #000000"/>
     <use xlink:href="#mad4f706f8b" x="566.360893" y="44.362452" style="fill-opacity: 0; stroke: #000000"/>
     <use xlink:href="#mad4f706f8b" x="566.360893" y="132.832028" style="fill-opacity: 0; stroke: #000000"/>
    </g>
   </g>
   <g id="patch_8">
    <path d="M 651.54375 386.908926 
L 708.332321 386.908926 
L 708.332321 336.093547 
L 651.54375 336.093547 
L 651.54375 386.908926 
z
" clip-path="url(#p5d1d415f86)" style="fill: #ccebc5; stroke: #000000; stroke-linejoin: miter"/>
   </g>
   <g id="line2d_49">
    <path d="M 679.938036 386.908926 
L 679.938036 407.235078 
" clip-path="url(#p5d1d415f86)" style="fill: none; stroke: #000000; stroke-linecap: square"/>
   </g>
   <g id="line2d_50">
    <path d="M 679.938036 336.093547 
L 679.938036 277.65586 
" clip-path="url(#p5d1d415f86)" style="fill: none; stroke: #000000; stroke-linecap: square"/>
   </g>
   <g id="line2d_51">
    <path d="M 665.740893 407.235078 
L 694.135179 407.235078 
" clip-path="url(#p5d1d415f86)" style="fill: none; stroke: #000000; stroke-linecap: square"/>
   </g>
   <g id="line2d_52">
    <path d="M 665.740893 277.65586 
L 694.135179 277.65586 
" clip-path="url(#p5d1d415f86)" style="fill: none; stroke: #000000; stroke-linecap: square"/>
   </g>
   <g id="line2d_53">
    <g clip-path="url(#p5d1d415f86)">
     <use xlink:href="#mad4f706f8b" x="679.938036" y="82.016648" style="fill-opacity: 0; stroke: #000000"/>
     <use xlink:href="#mad4f706f8b" x="679.938036" y="221.758942" style="fill-opacity: 0; stroke: #000000"/>
    </g>
   </g>
   <g id="patch_9">
    <path d="M 765.120893 379.286619 
L 821.909464 379.286619 
L 821.909464 338.634316 
L 765.120893 338.634316 
L 765.120893 379.286619 
z
" clip-path="url(#p5d1d415f86)" style="fill: #ffed6f; stroke: #000000; stroke-linejoin: miter"/>
   </g>
   <g id="line2d_54">
    <path d="M 793.515179 379.286619 
L 793.515179 399.612771 
" clip-path="url(#p5d1d415f86)" style="fill: none; stroke: #000000; stroke-linecap: square"/>
   </g>
   <g id="line2d_55">
    <path d="M 793.515179 338.634316 
L 793.515179 292.900474 
" clip-path="url(#p5d1d415f86)" style="fill: none; stroke: #000000; stroke-linecap: square"/>
   </g>
   <g id="line2d_56">
    <path d="M 779.318036 399.612771 
L 807.712321 399.612771 
" clip-path="url(#p5d1d415f86)" style="fill: none; stroke: #000000; stroke-linecap: square"/>
   </g>
   <g id="line2d_57">
    <path d="M 779.318036 292.900474 
L 807.712321 292.900474 
" clip-path="url(#p5d1d415f86)" style="fill: none; stroke: #000000; stroke-linecap: square"/>
   </g>
   <g id="line2d_58">
    <g clip-path="url(#p5d1d415f86)">
     <use xlink:href="#mad4f706f8b" x="793.515179" y="270.033553" style="fill-opacity: 0; stroke: #000000"/>
     <use xlink:href="#mad4f706f8b" x="793.515179" y="272.574322" style="fill-opacity: 0; stroke: #000000"/>
    </g>
   </g>
   <g id="line2d_59">
    <path d="M 83.658036 358.960467 
L 140.446607 358.960467 
" clip-path="url(#p5d1d415f86)" style="fill: none; stroke: #ff7f0e"/>
   </g>
   <g id="line2d_60">
    <path d="M 197.235179 361.501236 
L 254.02375 361.501236 
" clip-path="url(#p5d1d415f86)" style="fill: none; stroke: #ff7f0e"/>
   </g>
   <g id="line2d_61">
    <path d="M 310.812321 353.87893 
L 367.600893 353.87893 
" clip-path="url(#p5d1d415f86)" style="fill: none; stroke: #ff7f0e"/>
   </g>
   <g id="line2d_62">
    <path d="M 424.389464 358.960467 
L 481.178036 358.960467 
" clip-path="url(#p5d1d415f86)" style="fill: none; stroke: #ff7f0e"/>
   </g>
   <g id="line2d_63">
    <path d="M 537.966607 348.797392 
L 594.755179 348.797392 
" clip-path="url(#p5d1d415f86)" style="fill: none; stroke: #ff7f0e"/>
   </g>
   <g id="line2d_64">
    <path d="M 651.54375 367.124466 
L 708.332321 367.124466 
" clip-path="url(#p5d1d415f86)" style="fill: none; stroke: #ff7f0e"/>
   </g>
   <g id="line2d_65">
    <path d="M 765.120893 366.582774 
L 821.909464 366.582774 
" clip-path="url(#p5d1d415f86)" style="fill: none; stroke: #ff7f0e"/>
   </g>
   <g id="patch_10">
    <path d="M 55.26375 433.404999 
L 55.26375 25.3575 
" style="fill: none; stroke: #000000; stroke-width: 0.8; stroke-linejoin: miter; stroke-linecap: square"/>
   </g>
   <g id="patch_11">
    <path d="M 850.30375 433.404999 
L 850.30375 25.3575 
" style="fill: none; stroke: #000000; stroke-width: 0.8; stroke-linejoin: miter; stroke-linecap: square"/>
   </g>
   <g id="patch_12">
    <path d="M 55.26375 433.404999 
L 850.30375 433.404999 
" style="fill: none; stroke: #000000; stroke-width: 0.8; stroke-linejoin: miter; stroke-linecap: square"/>
   </g>
   <g id="patch_13">
    <path d="M 55.26375 25.3575 
L 850.30375 25.3575 
" style="fill: none; stroke: #000000; stroke-width: 0.8; stroke-linejoin: miter; stroke-linecap: square"/>
   </g>
   <g id="text_18">
    <!-- Price Distribution by Operating System -->
    <g transform="translate(296.78375 19.3575) scale(0.16 -0.16)">
     <defs>
      <path id="DejaVuSans-62" d="M 3116 1747 
Q 3116 2381 2855 2742 
Q 2594 3103 2138 3103 
Q 1681 3103 1420 2742 
Q 1159 2381 1159 1747 
Q 1159 1113 1420 752 
Q 1681 391 2138 391 
Q 2594 391 2855 752 
Q 3116 1113 3116 1747 
z
M 1159 2969 
Q 1341 3281 1617 3432 
Q 1894 3584 2278 3584 
Q 2916 3584 3314 3078 
Q 3713 2572 3713 1747 
Q 3713 922 3314 415 
Q 2916 -91 2278 -91 
Q 1894 -91 1617 61 
Q 1341 213 1159 525 
L 1159 0 
L 581 0 
L 581 4863 
L 1159 4863 
L 1159 2969 
z
" transform="scale(0.015625)"/>
      <path id="DejaVuSans-75" d="M 544 1381 
L 544 3500 
L 1119 3500 
L 1119 1403 
Q 1119 906 1312 657 
Q 1506 409 1894 409 
Q 2359 409 2629 706 
Q 2900 1003 2900 1516 
L 2900 3500 
L 3475 3500 
L 3475 0 
L 2900 0 
L 2900 538 
Q 2691 219 2414 64 
Q 2138 -91 1772 -91 
Q 1169 -91 856 284 
Q 544 659 544 1381 
z
M 1991 3584 
L 1991 3584 
z
" transform="scale(0.015625)"/>
     </defs>
     <use xlink:href="#DejaVuSans-50"/>
     <use xlink:href="#DejaVuSans-72" transform="translate(58.552734 0)"/>
     <use xlink:href="#DejaVuSans-69" transform="translate(99.666016 0)"/>
     <use xlink:href="#DejaVuSans-63" transform="translate(127.449219 0)"/>
     <use xlink:href="#DejaVuSans-65" transform="translate(182.429688 0)"/>
     <use xlink:href="#DejaVuSans-20" transform="translate(243.953125 0)"/>
     <use xlink:href="#DejaVuSans-44" transform="translate(275.740234 0)"/>
     <use xlink:href="#DejaVuSans-69" transform="translate(352.742188 0)"/>
     <use xlink:href="#DejaVuSans-73" transform="translate(380.525391 0)"/>
     <use xlink:href="#DejaVuSans-74" transform="translate(432.625 0)"/>
     <use xlink:href="#DejaVuSans-72" transform="translate(471.833984 0)"/>
     <use xlink:href="#DejaVuSans-69" transform="translate(512.947266 0)"/>
     <use xlink:href="#DejaVuSans-62" transform="translate(540.730469 0)"/>
     <use xlink:href="#DejaVuSans-75" transform="translate(604.207031 0)"/>
     <use xlink:href="#DejaVuSans-74" transform="translate(667.585938 0)"/>
     <use xlink:href="#DejaVuSans-69" transform="translate(706.794922 0)"/>
     <use xlink:href="#DejaVuSans-6f" transform="translate(734.578125 0)"/>
     <use xlink:href="#DejaVuSans-6e" transform="translate(795.759766 0)"/>
     <use xlink:href="#DejaVuSans-20" transform="translate(859.138672 0)"/>
     <use xlink:href="#DejaVuSans-62" transform="translate(890.925781 0)"/>
     <use xlink:href="#DejaVuSans-79" transform="translate(954.402344 0)"/>
     <use xlink:href="#DejaVuSans-20" transform="translate(1013.582031 0)"/>
     <use xlink:href="#DejaVuSans-4f" transform="translate(1045.369141 0)"/>
     <use xlink:href="#DejaVuSans-70" transform="translate(1124.080078 0)"/>
     <use xlink:href="#DejaVuSans-65" transform="translate(1187.556641 0)"/>
     <use xlink:href="#DejaVuSans-72" transform="translate(1249.080078 0)"/>
     <use xlink:href="#DejaVuSans-61" transform="translate(1290.193359 0)"/>
     <use xlink:href="#DejaVuSans-74" transform="translate(1351.472656 0)"/>
     <use xlink:href="#DejaVuSans-69" transform="translate(1390.681641 0)"/>
     <use xlink:href="#DejaVuSans-6e" transform="translate(1418.464844 0)"/>
     <use xlink:href="#DejaVuSans-67" transform="translate(1481.84375 0)"/>
     <use xlink:href="#DejaVuSans-20" transform="translate(1545.320312 0)"/>
     <use xlink:href="#DejaVuSans-53" transform="translate(1577.107422 0)"/>
     <use xlink:href="#DejaVuSans-79" transform="translate(1640.583984 0)"/>
     <use xlink:href="#DejaVuSans-73" transform="translate(1699.763672 0)"/>
     <use xlink:href="#DejaVuSans-74" transform="translate(1751.863281 0)"/>
     <use xlink:href="#DejaVuSans-65" transform="translate(1791.072266 0)"/>
     <use xlink:href="#DejaVuSans-6d" transform="translate(1852.595703 0)"/>
    </g>
   </g>
  </g>
 </g>
 <defs>
  <clipPath id="p5d1d415f86">
   <rect x="55.26375" y="25.3575" width="795.04" height="408.047499"/>
  </clipPath>
 </defs>
</svg>
